<svg width="24" height="24" viewBox="0 0 24 24" fill="none" xmlns="http://www.w3.org/2000/svg">
<path d="M14.1746 1.69653C14.2476 1.69666 14.3174 1.72582 14.3689 1.77759L18.3299 5.76001C18.3896 5.80034 18.4323 5.86331 18.4461 5.93677C18.4508 5.95708 18.4549 5.97808 18.4549 5.99927V11.1506C18.4548 11.3024 18.3313 11.425 18.1795 11.425C18.0278 11.425 17.9052 11.3024 17.9051 11.1506V6.26294H14.6619C14.2417 6.2627 13.9012 5.92137 13.9012 5.50122V2.24634H5.00078C4.59685 2.24653 4.26939 2.57383 4.26933 2.97778V20.9797C4.26933 21.3839 4.59699 21.712 5.00078 21.7122H17.1727C17.3668 21.7122 17.5534 21.6345 17.6902 21.4973C17.8275 21.3599 17.9051 21.1736 17.9051 20.9797V19.8157C17.9052 19.6639 18.0277 19.5413 18.1795 19.5413C18.3313 19.5413 18.4548 19.6639 18.4549 19.8157V20.9797C18.4549 21.3196 18.3193 21.6455 18.0789 21.886C17.8387 22.1267 17.5125 22.262 17.1727 22.262H5.00078C4.29289 22.2618 3.71953 21.6873 3.71953 20.9797V2.97778C3.71958 2.27007 4.29309 1.69672 5.00078 1.69653H14.1746ZM14.451 5.50122C14.451 5.61776 14.5456 5.71289 14.6619 5.71313H17.5076L14.451 2.63989V5.50122Z" fill="#18181B"/>
<path fill-rule="evenodd" clip-rule="evenodd" d="M20.8721 12.8732C20.8721 12.5972 20.6481 12.373 20.3721 12.373H7.87657C7.60057 12.373 7.37657 12.5972 7.37657 12.8732V17.8743C7.37657 18.1504 7.60057 18.3741 7.87657 18.3741H20.3721C20.6481 18.3741 20.8721 18.1504 20.8721 17.8743V12.8732Z" fill="#1870E7"/>
<path d="M11.9507 13.3635C12.6541 13.3636 13.226 13.9353 13.2261 14.6389V16.1389C13.226 16.8427 12.6539 17.4133 11.9507 17.4133C11.2468 17.4133 10.6753 16.8427 10.6753 16.1389V14.6389C10.6753 13.9353 11.2466 13.3635 11.9507 13.3635ZM14.9468 13.3635C15.65 13.3635 16.2219 13.9342 16.2222 14.6379V16.1389C16.2221 16.8428 15.65 17.4133 14.9468 17.4133C14.5891 17.4133 14.266 17.2663 14.0347 17.0295C13.9286 16.921 13.9302 16.747 14.0386 16.6409C14.1472 16.5348 14.3221 16.5361 14.4282 16.6448C14.5604 16.7801 14.7432 16.8635 14.9468 16.8635C15.3465 16.8635 15.6713 16.5388 15.6714 16.1389V15.7053C15.4655 15.848 15.2158 15.9319 14.9468 15.9319C14.2428 15.9319 13.6714 15.3601 13.6714 14.6565V14.6379C13.6716 13.9343 14.2429 13.3635 14.9468 13.3635ZM17.9487 13.3635C18.6519 13.3636 19.2229 13.9343 19.2231 14.6379V16.1389C19.2231 16.8427 18.652 17.4133 17.9487 17.4133C17.5911 17.4133 17.268 17.2663 17.0366 17.0295C16.9306 16.921 16.9321 16.747 17.0405 16.6409C17.149 16.5349 17.323 16.5366 17.4292 16.6448C17.5613 16.7801 17.7451 16.8635 17.9487 16.8635C18.3484 16.8635 18.6733 16.5388 18.6733 16.1389V15.7043C18.4673 15.8472 18.218 15.9319 17.9487 15.9319C17.2448 15.9319 16.6733 15.3601 16.6733 14.6565V14.6379C16.6736 13.9343 17.2449 13.3635 17.9487 13.3635ZM9.44969 13.3342C9.60142 13.3342 9.72484 13.457 9.72508 13.6086V17.1086C9.72508 17.2605 9.60157 17.384 9.44969 17.384C9.29797 17.3838 9.17528 17.2604 9.17528 17.1086V13.6086C9.17552 13.4571 9.29812 13.3344 9.44969 13.3342ZM11.9507 13.9133C11.5507 13.9133 11.2261 14.2388 11.2261 14.6389V16.1389C11.2261 16.5389 11.5505 16.8635 11.9507 16.8635C12.3504 16.8635 12.6753 16.5388 12.6753 16.1389V14.6389C12.6752 14.2389 12.3502 13.9134 11.9507 13.9133ZM14.9468 13.9133C14.5468 13.9133 14.2224 14.2379 14.2222 14.6379V14.6565C14.2222 15.0564 14.5466 15.3821 14.9468 15.3821C15.3465 15.3821 15.6714 15.0563 15.6714 14.6565V14.6379C15.6711 14.238 15.3463 13.9133 14.9468 13.9133ZM17.9487 13.9133C17.5488 13.9133 17.2244 14.2379 17.2241 14.6379V14.6565C17.2241 15.0564 17.5486 15.3821 17.9487 15.3821C18.3484 15.382 18.6733 15.0563 18.6733 14.6565V14.6379C18.6731 14.2381 18.3482 13.9134 17.9487 13.9133Z" fill="white"/>
</svg>
