<svg width="24" height="24" viewBox="0 0 24 24" fill="none" xmlns="http://www.w3.org/2000/svg">
<path fill-rule="evenodd" clip-rule="evenodd" d="M3.99907 2.81152C4.71302 3.13409 5.33611 3.5588 5.54524 4.47812V19.7034C5.54524 19.7034 5.6404 21.1765 6.971 21.1765C8.3016 21.1765 8.49998 19.8808 8.49998 19.8808V18.9884C8.49998 18.8486 8.55482 18.7196 8.65213 18.6174C8.74944 18.5207 8.88169 18.4669 9.01931 18.4669C11.0709 18.4669 18.5034 18.4669 18.5034 18.4669V4.59638C18.5034 3.61254 17.7061 2.81152 16.7223 2.81152C12.8482 2.81152 3.99907 2.81152 3.99907 2.81152Z" fill="#1870E7"/>
<path d="M12.1347 6.95532C12.2866 6.95532 12.4101 7.07884 12.4101 7.23071V7.86743C13.1283 7.93507 13.7374 8.38993 13.9609 9.02466C14.0112 9.16784 13.936 9.32476 13.7929 9.37524C13.6497 9.42566 13.4928 9.35044 13.4423 9.20728C13.3008 8.80518 12.9072 8.48496 12.4101 8.42017V10.6975C13.0988 10.7314 13.6316 10.9543 13.999 11.3293C14.3968 11.7356 14.5673 12.2844 14.5673 12.8586C14.5673 14.0159 13.5968 14.9269 12.4101 15.0139V15.6497C12.4099 15.8013 12.2864 15.9241 12.1347 15.9241C11.9831 15.924 11.8605 15.8013 11.8603 15.6497V14.9954C11.1117 14.8873 10.4736 14.4521 10.1357 13.8411C10.0622 13.7082 10.1102 13.5405 10.2431 13.467C10.376 13.3937 10.5437 13.4426 10.6171 13.5754C10.8563 14.0075 11.3095 14.3364 11.8603 14.4387V11.2131C11.451 11.1536 11.1143 10.9938 10.8652 10.7463C10.5466 10.4297 10.3974 10.0003 10.3974 9.54907C10.3975 8.71321 11.0411 8.0456 11.8603 7.89087V7.23071C11.8603 7.07891 11.9829 6.95543 12.1347 6.95532ZM12.4101 14.4641C13.3318 14.3795 14.0175 13.6724 14.0175 12.8586C14.0175 12.3903 13.879 11.9934 13.6054 11.7141C13.3595 11.4631 12.9771 11.2801 12.4101 11.2473V14.4641ZM11.8603 8.45532C11.3208 8.59811 10.9473 9.04879 10.9472 9.54907C10.9472 9.87981 11.0553 10.1594 11.2529 10.3557C11.3926 10.4946 11.5912 10.604 11.8603 10.6565V8.45532Z" fill="white"/>
<path d="M21.5 18.1851C21.5948 18.1851 21.6781 18.2331 21.7275 18.3062C21.7583 18.3505 21.7763 18.4044 21.7764 18.4624C21.7764 18.4652 21.7755 18.4684 21.7754 18.4712V19.6899C21.7751 20.6446 21.0235 21.4177 20.081 21.4595C20.0559 21.467 20.0295 21.4731 20.0019 21.4731H6.99608C6.9684 21.4731 6.94217 21.4671 6.91698 21.4595C5.97488 21.4182 5.22288 20.6448 5.22264 19.6899C5.22264 19.5381 5.34615 19.4146 5.49803 19.4146C5.64991 19.4146 5.77342 19.5381 5.77342 19.6899C5.77367 20.3678 6.3214 20.9146 6.99608 20.9146C7.01906 20.9146 7.04115 20.918 7.06248 20.9233H19.9336C19.9552 20.9179 19.9776 20.9146 20.001 20.9146C20.6768 20.9146 21.2243 20.3677 21.2246 19.6899V18.7378H19.1533C19.0014 18.7378 18.8779 18.6143 18.8779 18.4624C18.8781 18.3107 19.0016 18.188 19.1533 18.188H21.4668C21.4777 18.1867 21.4887 18.1851 21.5 18.1851ZM3.99901 2.88037C4.97773 2.8805 5.77147 3.67425 5.77147 4.65576C5.77121 4.80742 5.6478 4.93018 5.49608 4.93018C5.34453 4.92997 5.22192 4.8073 5.22166 4.65576C5.22166 3.97777 4.67373 3.43031 3.99901 3.43018C3.32306 3.43018 2.77538 3.9778 2.77538 4.65576V5.60986H4.56053C4.71241 5.60986 4.83592 5.73338 4.83592 5.88525C4.8358 6.03703 4.71233 6.15967 4.56053 6.15967H2.49998C2.34823 6.15961 2.2257 6.03699 2.22557 5.88525V4.65576C2.22557 3.67405 3.0193 2.88037 3.99901 2.88037Z" fill="#18181B"/>
</svg>
