<svg width="24" height="24" viewBox="0 0 24 24" fill="none" xmlns="http://www.w3.org/2000/svg">
<path d="M13.0535 2.22534C13.6875 2.22534 14.1512 2.7898 14.1512 3.41968V12.6501C14.1512 12.8019 14.0285 12.9254 13.8768 12.9255C13.7249 12.9255 13.6014 12.802 13.6014 12.6501V3.41968C13.6014 3.03451 13.3278 2.77515 13.0535 2.77515H3.82306C3.54875 2.77515 3.27521 3.03451 3.27521 3.41968V20.0154C3.27526 20.3995 3.54863 20.6589 3.82306 20.6589H7.24591C7.24535 20.6518 7.24397 20.6447 7.24396 20.6375V18.9431C7.24398 18.6274 7.5005 18.3708 7.81622 18.3708H9.06622C9.38189 18.3708 9.63846 18.6275 9.63849 18.9431V20.6375C9.63848 20.6447 9.6371 20.6518 9.63654 20.6589H10.4041C10.5558 20.659 10.6793 20.7817 10.6795 20.9333C10.6795 21.0852 10.556 21.2087 10.4041 21.2087H3.82306C3.18932 21.2087 2.72546 20.6446 2.7254 20.0154V3.41968C2.7254 2.7898 3.18914 2.22534 3.82306 2.22534H13.0535ZM7.81622 18.9216C7.80423 18.9216 7.79379 18.9312 7.79376 18.9431V20.6375C7.79375 20.6447 7.79237 20.6518 7.79181 20.6589H9.09064C9.09007 20.6518 9.08869 20.6447 9.08868 20.6375V18.9431C9.08866 18.9311 9.07801 18.9216 9.06622 18.9216H7.81622ZM10.4041 16.1296C10.5559 16.1296 10.6793 16.2523 10.6795 16.4041C10.6795 16.5559 10.556 16.6794 10.4041 16.6794H5.46857C5.31669 16.6794 5.19318 16.5559 5.19318 16.4041C5.19333 16.2523 5.31679 16.1296 5.46857 16.1296H10.4041ZM10.4041 13.8601C10.556 13.8601 10.6795 13.9836 10.6795 14.1355C10.6794 14.2873 10.5559 14.4099 10.4041 14.4099H5.46857C5.31675 14.4099 5.19328 14.2873 5.19318 14.1355C5.19318 13.9836 5.31669 13.8601 5.46857 13.8601H10.4041ZM11.4109 11.5847C11.5627 11.5849 11.6854 11.7083 11.6854 11.8601C11.6853 12.0118 11.5626 12.1344 11.4109 12.1345H5.46954C5.31793 12.1343 5.19524 12.0118 5.19513 11.8601C5.19513 11.7084 5.31786 11.5849 5.46954 11.5847H11.4109ZM11.4109 9.30933C11.5627 9.3095 11.6854 9.43295 11.6854 9.58472C11.6852 9.73636 11.5626 9.85895 11.4109 9.85913H5.46954C5.31794 9.85892 5.19528 9.73634 5.19513 9.58472C5.19513 9.43297 5.31785 9.30954 5.46954 9.30933H11.4109ZM11.4109 7.03589C11.5625 7.03606 11.6851 7.15874 11.6854 7.3103C11.6854 7.46207 11.5627 7.58552 11.4109 7.58569H5.46954C5.31785 7.58548 5.19513 7.46205 5.19513 7.3103C5.19537 7.15876 5.31799 7.0361 5.46954 7.03589H11.4109ZM11.4109 4.7605C11.5626 4.76066 11.6852 4.8833 11.6854 5.03491C11.6854 5.18669 11.5627 5.31014 11.4109 5.3103H5.46954C5.31786 5.31007 5.19513 5.18665 5.19513 5.03491C5.19533 4.88334 5.31798 4.76073 5.46954 4.7605H11.4109Z" fill="#18181B"/>
<path fill-rule="evenodd" clip-rule="evenodd" d="M21.4536 14.1408C21.4536 13.8134 21.1909 13.5469 20.8608 13.5469H12.0092C11.6791 13.5469 11.4097 13.8134 11.4097 14.1408V20.6195C11.4097 20.947 11.6791 21.2128 12.0092 21.2128H20.8608C21.1909 21.2128 21.4536 20.947 21.4536 20.6195V14.1408Z" fill="#1870E7"/>
<path d="M17.7705 18.3713C18.0863 18.3713 18.3428 18.628 18.3428 18.9436V21.2034C18.3427 21.5191 18.0861 21.7747 17.7705 21.7747H15.0947C14.7792 21.7746 14.5235 21.519 14.5234 21.2034V18.9436C14.5234 18.628 14.779 18.3714 15.0947 18.3713H17.7705ZM15.0947 18.9211C15.0829 18.9212 15.0732 18.9317 15.0732 18.9436V21.2034C15.0733 21.2151 15.0828 21.2248 15.0947 21.2249H17.7705C17.7825 21.2249 17.7929 21.2151 17.793 21.2034V18.9436C17.793 18.9316 17.7824 18.9211 17.7705 18.9211H15.0947ZM14.1309 15.927C14.2825 15.9271 14.405 16.0498 14.4053 16.2014C14.4053 16.3532 14.2827 16.4767 14.1309 16.4768H13.2002C13.0484 16.4768 12.9258 16.3533 12.9258 16.2014C12.926 16.0498 13.0485 15.9271 13.2002 15.927H14.1309ZM16.8633 15.927C17.015 15.927 17.1384 16.0498 17.1387 16.2014C17.1387 16.3533 17.0152 16.4768 16.8633 16.4768H15.9336C15.7817 16.4768 15.6582 16.3533 15.6582 16.2014C15.6585 16.0498 15.7819 15.927 15.9336 15.927H16.8633ZM19.665 15.927C19.8168 15.927 19.9402 16.0498 19.9404 16.2014C19.9404 16.3533 19.8169 16.4768 19.665 16.4768H18.7354C18.5835 16.4768 18.46 16.3533 18.46 16.2014C18.4602 16.0498 18.5836 15.927 18.7354 15.927H19.665Z" fill="white"/>
</svg>
