<svg width="24" height="24" viewBox="0 0 24 24" fill="none" xmlns="http://www.w3.org/2000/svg">
<path fill-rule="evenodd" clip-rule="evenodd" d="M11.9996 3.51416C16.683 3.51416 20.4851 7.31629 20.4851 11.9997C20.4851 16.683 16.683 20.4852 11.9996 20.4852C7.31621 20.4852 3.5141 16.683 3.5141 11.9997C3.5141 7.31629 7.31621 3.51416 11.9996 3.51416ZM11.9996 8.22959C14.0802 8.22959 15.7697 9.91905 15.7697 11.9997C15.7697 14.0803 14.0802 15.7697 11.9996 15.7697C9.91898 15.7697 8.22951 14.0803 8.22951 11.9997C8.22951 9.91905 9.91898 8.22959 11.9996 8.22959Z" fill="#1870E7"/>
<path d="M14.9238 14.3762C15.6726 14.7393 16.3671 15.3296 16.9355 15.9651C17.4695 16.5621 17.9077 17.2192 18.1846 17.802C18.0504 17.9449 17.9122 18.0837 17.7686 18.217C17.5332 17.659 17.0942 16.9672 16.5254 16.3313C15.9397 15.6766 15.2399 15.1059 14.5225 14.7981C14.6668 14.6679 14.801 14.5271 14.9238 14.3762ZM9.13672 14.4495C9.26618 14.6006 9.40708 14.7414 9.55859 14.8704C8.89667 15.1138 8.16228 15.61 7.5332 16.2219C6.89574 16.8421 6.40019 17.5492 6.19336 18.1819C6.04634 18.0437 5.90349 17.9014 5.7666 17.7532C6.04666 17.0825 6.55748 16.4043 7.14941 15.8284C7.74545 15.2486 8.4506 14.7478 9.13672 14.4495ZM6.21582 5.79614C6.37199 5.86884 6.53569 5.95588 6.69824 6.05591C7.0933 6.29904 7.52741 6.62636 7.94238 6.99438C8.35735 7.36243 8.75845 7.77649 9.08691 8.19458C9.30917 8.47752 9.50288 8.76993 9.64453 9.05688C9.4933 9.17811 9.35157 9.31064 9.2207 9.45337C9.10549 9.17391 8.91094 8.85994 8.65527 8.53442C8.35079 8.14683 7.97262 7.75626 7.57715 7.40552C7.18174 7.05486 6.77334 6.7482 6.41016 6.52466C6.16786 6.37556 5.95856 6.27493 5.79492 6.21606C5.93016 6.07105 6.07083 5.9314 6.21582 5.79614ZM17.8037 5.8147C17.9498 5.95183 18.0915 6.09342 18.2275 6.24048C16.8861 6.72152 15.756 7.68103 14.6738 9.34302C14.5434 9.21171 14.4034 9.08984 14.2549 8.97876C15.3105 7.37655 16.4451 6.36465 17.8037 5.8147Z" fill="white"/>
<path d="M4.94 16.7695C5.06013 16.6767 5.23285 16.6992 5.32574 16.8193C5.86017 17.5102 6.48316 18.1258 7.17535 18.6504C7.29628 18.742 7.32047 18.9141 7.22906 19.0352C7.13733 19.1562 6.96437 19.1806 6.84332 19.0889C6.8084 19.0624 6.7744 19.0347 6.73981 19.0078C6.24253 19.3816 5.53417 19.3442 5.0816 18.8916C4.63196 18.4417 4.59201 17.7379 4.95953 17.2412C4.93684 17.2125 4.91358 17.1842 4.89117 17.1553C4.79825 17.0351 4.81987 16.8625 4.94 16.7695ZM18.6441 16.7969C18.736 16.6762 18.9081 16.6525 19.0289 16.7441C19.1496 16.8361 19.1735 17.0091 19.0816 17.1299C19.0451 17.1778 19.0066 17.2243 18.9693 17.2715C19.3207 17.7564 19.2797 18.4372 18.8433 18.874C18.4035 19.3139 17.7157 19.3539 17.23 18.9951C17.2187 19.0039 17.2082 19.0137 17.1968 19.0225C17.0765 19.115 16.9037 19.093 16.8111 18.9727C16.7186 18.8523 16.7416 18.6795 16.8619 18.5869C17.5299 18.0728 18.1304 17.4712 18.6441 16.7969ZM5.3316 17.6875C5.20522 17.9545 5.25083 18.2825 5.47125 18.5029C5.69338 18.7249 6.02283 18.7678 6.29059 18.6387C5.95127 18.3431 5.63082 18.0254 5.3316 17.6875ZM18.5953 17.7188C18.3097 18.0401 18.0042 18.3421 17.6812 18.624C17.9357 18.7393 18.2445 18.6945 18.4537 18.4854C18.6609 18.2781 18.7073 17.9722 18.5953 17.7188ZM5.08746 5.10938C5.52854 4.66863 6.2139 4.62303 6.70758 4.96973C6.73401 4.94898 6.76006 4.92771 6.78668 4.90723C6.90705 4.81463 7.07981 4.83667 7.17242 4.95703C7.265 5.0774 7.24199 5.25017 7.12164 5.34277C6.43571 5.87061 5.81904 6.48828 5.29156 7.18066C5.19959 7.30138 5.0276 7.32521 4.9068 7.2334C4.78605 7.14141 4.7622 6.96846 4.85406 6.84766C4.88425 6.80803 4.91513 6.76865 4.94586 6.72949C4.5999 6.2357 4.64641 5.55043 5.08746 5.10938ZM17.2525 4.97266C17.7444 4.63157 18.4249 4.67928 18.8629 5.11719C19.3 5.55449 19.3471 6.23201 19.0084 6.72363C19.0253 6.74523 19.0433 6.76634 19.0601 6.78809C19.1529 6.90821 19.1304 7.08094 19.0103 7.17383C18.8902 7.2667 18.7175 7.24499 18.6246 7.125C18.0941 6.43927 17.4757 5.8283 16.7886 5.30762C16.6676 5.21588 16.6442 5.04292 16.7359 4.92188C16.8277 4.80108 16.9997 4.77754 17.1207 4.86914C17.1652 4.90287 17.2085 4.93821 17.2525 4.97266ZM6.25543 5.34375C5.99601 5.23666 5.68653 5.28863 5.47614 5.49902C5.2655 5.70977 5.21388 6.01899 5.32086 6.27832C5.61268 5.94692 5.92491 5.63471 6.25543 5.34375ZM18.4732 5.50586C18.2662 5.29914 17.9628 5.24666 17.7066 5.34863C18.0331 5.6358 18.3427 5.94269 18.6314 6.26953C18.7315 6.01398 18.6797 5.71232 18.4732 5.50586Z" fill="#18181B"/>
</svg>
