<svg width="24" height="24" viewBox="0 0 24 24" fill="none" xmlns="http://www.w3.org/2000/svg">
<rect x="5" y="2.5" width="14" height="18" rx="2" fill="#1870E7"/>
<path d="M18 22L18.0503 22.0049C18.1643 22.0281 18.25 22.1291 18.25 22.25C18.25 22.3709 18.1643 22.4719 18.0503 22.4951L18 22.5H6C5.86193 22.5 5.75 22.3881 5.75 22.25C5.75 22.1119 5.86193 22 6 22H18Z" fill="#18181B"/>
<path d="M16.5 9.5V10H7.5V9.5H16.5ZM17 9V5C17 4.72386 16.7761 4.5 16.5 4.5H7.5C7.24116 4.5 7.02811 4.69667 7.00244 4.94873L7 5V9C7 9.27614 7.22386 9.5 7.5 9.5V10L7.39795 9.99463C6.92717 9.9469 6.5531 9.57283 6.50537 9.10205L6.5 9V5C6.5 4.48217 6.89361 4.0565 7.39795 4.00537L7.5 4H16.5L16.6021 4.00537C17.1064 4.0565 17.5 4.48217 17.5 5V9L17.4946 9.10205C17.4469 9.57283 17.0728 9.9469 16.6021 9.99463L16.5 10V9.5C16.7761 9.5 17 9.27614 17 9Z" fill="white"/>
<path d="M16 11.5C16.8284 11.5 17.5 12.1716 17.5 13C17.5 13.8284 16.8284 14.5 16 14.5C15.1716 14.5 14.5 13.8284 14.5 13C14.5 12.1716 15.1716 11.5 16 11.5Z" fill="white"/>
<path d="M16 16C16.8284 16 17.5 16.6716 17.5 17.5C17.5 18.3284 16.8284 19 16 19C15.1716 19 14.5 18.3284 14.5 17.5C14.5 16.6716 15.1716 16 16 16Z" fill="white"/>
<path d="M12 11.5C12.8284 11.5 13.5 12.1716 13.5 13C13.5 13.8284 12.8284 14.5 12 14.5C11.1716 14.5 10.5 13.8284 10.5 13C10.5 12.1716 11.1716 11.5 12 11.5Z" fill="white"/>
<path d="M8 11.5C8.82843 11.5 9.5 12.1716 9.5 13C9.5 13.8284 8.82843 14.5 8 14.5C7.17157 14.5 6.5 13.8284 6.5 13C6.5 12.1716 7.17157 11.5 8 11.5Z" fill="white"/>
<rect x="6.5" y="16" width="6.5" height="3" rx="1.5" fill="white"/>
</svg>
