<svg width="24" height="24" viewBox="0 0 24 24" fill="none" xmlns="http://www.w3.org/2000/svg">
<path fill-rule="evenodd" clip-rule="evenodd" d="M11.971 15.1589C10.123 15.1009 9.09199 15.7274 8.70549 14.1554L8.972 13.3834L13.534 11.8264C13.6685 11.8049 13.797 11.7909 13.92 11.7829L16.173 7.88039C16.311 7.64139 16.229 7.33541 15.99 7.19741L9.94548 3.70739C9.70648 3.56939 9.4005 3.6514 9.2625 3.8904L2.20251 16.1189C2.06451 16.3579 2.1465 16.6639 2.3855 16.8019L8.43001 20.2919C8.66901 20.4299 8.97499 20.3479 9.11299 20.1089L11.971 15.1589Z" fill="#1870E7"/>
<path fill-rule="evenodd" clip-rule="evenodd" d="M9.18793 10.2749C8.23579 10.2749 7.46296 11.0477 7.46296 11.9998C7.46296 12.4598 7.64293 12.8778 7.93743 13.1873C8.04212 13.2974 8.0378 13.4714 7.92778 13.5761C7.81775 13.6808 7.64368 13.6765 7.53899 13.5665C7.15094 13.1587 6.91296 12.6063 6.91296 11.9998C6.91296 10.7439 7.93205 9.72485 9.18793 9.72485C10.229 9.72485 11.1062 10.4251 11.3767 11.379C11.4182 11.5251 11.3333 11.6772 11.1872 11.7186C11.0411 11.76 10.889 11.6752 10.8476 11.5291C10.6423 10.8051 9.97619 10.2749 9.18793 10.2749Z" fill="white"/>
<path d="M15.0692 10.7292C15.1034 10.7315 15.1539 10.735 15.2176 10.74C15.3453 10.7499 15.5285 10.7651 15.7518 10.7888C16.1985 10.8363 16.8082 10.9158 17.4588 11.0427C18.1082 11.1694 18.8057 11.3449 19.4247 11.5876C20.0372 11.8279 20.604 12.146 20.9608 12.574C22.2828 14.1603 22.2888 15.7696 21.7557 17.1023C21.4938 17.757 21.0943 18.4265 20.4217 18.9646C19.7482 19.5034 18.8202 19.8939 17.5272 20.0232C16.1753 20.1583 14.9154 19.4826 13.8553 18.8279C13.6752 18.7166 13.5015 18.6062 13.3338 18.4998C12.9946 18.2845 12.6782 18.0838 12.3748 17.9167C11.9196 17.666 11.5503 17.5251 11.2498 17.5251C11.098 17.5251 10.9754 17.4016 10.9754 17.2498C10.9756 17.0981 11.0981 16.9754 11.2498 16.9753C11.6993 16.9753 12.174 17.1783 12.6405 17.4353C12.9587 17.6106 13.3 17.8266 13.6483 18.0476C13.8126 18.1519 13.9784 18.2576 14.1444 18.3601C15.2092 19.0178 16.3244 19.5911 17.4725 19.4763C18.6795 19.3556 19.5015 18.9961 20.078 18.5349C20.6553 18.073 21.0068 17.4934 21.245 16.8982C21.7119 15.731 21.7167 14.34 20.5389 12.9265C20.2707 12.6047 19.8061 12.3278 19.2235 12.0994C18.6472 11.8734 17.9851 11.706 17.3534 11.5828C16.7228 11.4597 16.1293 11.382 15.6932 11.3357C15.4785 11.3129 15.183 11.2885 15.1747 11.2878C15.1747 11.2878 14.7503 11.2501 14.7254 10.9851C14.7009 10.7199 14.8638 10.7169 15.0155 10.7253L15.0692 10.7292ZM2.73715 17.8142C2.88369 17.8537 2.97088 18.0046 2.93149 18.1511C2.89927 18.2707 2.97002 18.3941 3.08969 18.4265L5.0184 18.946C5.16505 18.9855 5.25224 19.1373 5.21274 19.2839C5.1731 19.4304 5.02139 19.5168 4.87485 19.4773L2.94711 18.9578C2.53383 18.8464 2.28928 18.4212 2.40024 18.0085C2.43974 17.8619 2.5905 17.7747 2.73715 17.8142ZM14.328 11.5085C14.6567 11.5114 15.283 11.6208 15.7997 11.7214C16.0637 11.7729 16.3091 11.8247 16.4881 11.863C16.5776 11.8822 16.6512 11.8977 16.702 11.9089L16.7606 11.9226L16.7811 11.9265C16.9292 11.9599 17.0225 12.1075 16.9891 12.2556C16.9557 12.4037 16.8091 12.4969 16.661 12.4636L16.6414 12.4587L16.5838 12.446C16.534 12.435 16.4613 12.4191 16.3729 12.4001C16.1962 12.3623 15.9547 12.3121 15.6952 12.2615C15.1636 12.1579 14.5918 12.0617 14.3241 12.0593C13.7324 12.0547 12.9726 12.2756 12.0936 12.5857C11.8397 12.6753 11.5768 12.7729 11.3075 12.8718C10.6647 13.108 9.98696 13.3569 9.32016 13.5515L9.31528 13.5525C9.07022 13.6191 8.92115 13.8672 8.97739 14.114C9.04732 14.3861 9.17743 14.6474 9.40805 14.8123C9.63167 14.972 10.0013 15.0773 10.6317 14.9333C11.4906 14.7372 12.7031 14.8326 13.6581 15.2312C13.9698 15.3615 14.2253 15.5589 14.4627 15.7664C14.5553 15.8472 14.6427 15.9264 14.7293 16.0056C14.8758 16.1396 15.0215 16.2733 15.1932 16.4119C15.7102 16.8289 16.3919 17.2269 17.5858 17.3533C17.7367 17.3692 17.8457 17.5041 17.8299 17.655C17.8139 17.806 17.6791 17.916 17.5282 17.9001C16.2153 17.7612 15.4355 17.3148 14.8475 16.8406C14.6653 16.6936 14.4933 16.5354 14.3368 16.3923C14.2536 16.3163 14.1748 16.2445 14.1014 16.1804C13.8782 15.9855 13.6757 15.835 13.4461 15.739C12.5916 15.3824 11.4957 15.3 10.7538 15.4695C10.0182 15.6375 9.47472 15.5361 9.08774 15.2595C8.70887 14.9886 8.53032 14.5848 8.44418 14.2478L8.44223 14.2419C8.31703 13.7064 8.63813 13.1678 9.16782 13.0222C9.81516 12.8332 10.4631 12.5952 11.0975 12.3621C11.3714 12.2614 11.6429 12.1617 11.911 12.0671C12.7817 11.7599 13.6269 11.5031 14.328 11.5085ZM5.58871 3.92358C5.7 3.51042 6.12477 3.26558 6.53793 3.37671L8.04575 3.78296C8.19221 3.82259 8.27858 3.97333 8.23911 4.11987C8.19947 4.26632 8.04873 4.3527 7.90219 4.31323L6.39536 3.90796C6.27545 3.87566 6.15135 3.94629 6.11899 4.06616L4.0477 11.7595C4.0082 11.9062 3.85646 11.9934 3.70981 11.9539C3.56341 11.9142 3.4771 11.7634 3.51645 11.6169L5.58871 3.92358Z" fill="#18181B"/>
</svg>
