<svg width="24" height="24" viewBox="0 0 24 24" fill="none" xmlns="http://www.w3.org/2000/svg">
<g clip-path="url(#clip0_7070_9527)">
<path fill-rule="evenodd" clip-rule="evenodd" d="M20.2556 18.2558C22.2129 15.9409 22.1871 12.4794 20.0806 10.2009C17.7979 7.7319 13.9309 7.58128 11.4506 9.86478C8.97025 12.1483 8.80976 16.0068 11.0924 18.4758C12.5542 20.057 14.6657 20.6873 16.647 20.3365C17.423 20.9266 18.4255 21.3081 19.6718 21.4645C19.7683 21.4767 19.8641 21.4382 19.9253 21.3627C19.9863 21.287 20.004 21.1853 19.9714 21.0939C19.6489 20.1763 19.5334 19.2444 20.2556 18.2558Z" fill="#1870E7"/>
<path d="M17.8079 19.4761C17.9241 19.3785 18.0979 19.3933 18.1956 19.5093C18.2931 19.6255 18.2784 19.7993 18.1624 19.897C17.6513 20.3258 16.9646 20.5666 16.1878 20.6499C16.0369 20.666 15.9012 20.5567 15.885 20.4058C15.8689 20.2548 15.9783 20.1193 16.1292 20.103C16.8341 20.0274 17.405 19.814 17.8079 19.4761ZM12.928 13.272C13.4939 13.2721 13.9523 13.7305 13.9524 14.2964C13.9524 14.8623 13.4939 15.3217 12.928 15.3218C12.362 15.3218 11.9026 14.8624 11.9026 14.2964C11.9027 13.7305 12.362 13.272 12.928 13.272ZM15.5667 13.272C16.1326 13.272 16.591 13.7305 16.5911 14.2964C16.5911 14.8624 16.1327 15.3218 15.5667 15.3218C15.0007 15.3218 14.5423 14.8624 14.5423 14.2964C14.5424 13.7305 15.0007 13.272 15.5667 13.272ZM18.2063 13.272C18.7722 13.2721 19.2307 13.7305 19.2307 14.2964C19.2307 14.8623 18.7722 15.3217 18.2063 15.3218C17.6403 15.3218 17.1809 14.8624 17.1809 14.2964C17.181 13.7305 17.6404 13.272 18.2063 13.272ZM12.928 13.8218C12.6658 13.8218 12.4535 14.0342 12.4534 14.2964C12.4534 14.5586 12.6658 14.771 12.928 14.771C13.1902 14.7709 13.4026 14.5586 13.4026 14.2964C13.4025 14.0343 13.1901 13.8219 12.928 13.8218ZM15.5667 13.8218C15.3045 13.8218 15.0922 14.0342 15.0921 14.2964C15.0921 14.5586 15.3044 14.771 15.5667 14.771C15.8289 14.771 16.0413 14.5586 16.0413 14.2964C16.0412 14.0342 15.8289 13.8218 15.5667 13.8218ZM18.2063 13.8218C17.9441 13.8218 17.7318 14.0342 17.7317 14.2964C17.7317 14.5586 17.9441 14.771 18.2063 14.771C18.4685 14.7709 18.6809 14.5586 18.6809 14.2964C18.6808 14.0343 18.4684 13.8219 18.2063 13.8218Z" fill="white"/>
<path fill-rule="evenodd" clip-rule="evenodd" d="M4.38345 4.60834C2.37269 6.78328 2.34721 10.0889 4.21656 12.2997C4.22076 12.3047 4.22478 12.3098 4.22862 12.3151C4.62063 12.8517 4.79142 13.3836 4.81498 13.9103C4.83829 14.4313 4.71682 14.9315 4.55009 15.406L4.54968 15.4071C4.54952 15.4075 4.54922 15.4092 4.55076 15.4114C4.55198 15.4127 4.55369 15.4134 4.55564 15.4131L4.55565 15.4131C5.76516 15.2613 6.71874 14.8936 7.4479 14.3391C7.50912 14.2926 7.58709 14.2737 7.66287 14.2872C8.61654 14.4561 9.60171 14.3869 10.5232 14.0837C10.6676 14.0361 10.8232 14.1144 10.8708 14.2585C10.9184 14.4026 10.8399 14.5579 10.6955 14.6054C9.72514 14.9247 8.6908 15.0068 7.68474 14.8479C6.87673 15.4322 5.85746 15.8035 4.62426 15.9583C4.43324 15.9822 4.24347 15.9061 4.12236 15.7566L4.12185 15.756C4.00189 15.607 3.96606 15.4059 4.03071 15.2237C4.18636 14.7807 4.28381 14.3563 4.26496 13.9349C4.24646 13.5215 4.11531 13.0955 3.78925 12.6464C1.75051 10.2275 1.77896 6.61529 3.97882 4.23582C6.36505 1.65477 10.4063 1.4981 12.9978 3.884C13.8931 4.70826 14.4995 5.72929 14.811 6.81933C14.8527 6.96523 14.7679 7.11724 14.6217 7.15887C14.4755 7.20049 14.3232 7.11596 14.2815 6.97006C13.997 5.97436 13.4433 5.04174 12.6245 4.28785C10.2554 2.10676 6.56254 2.25133 4.38345 4.60834Z" fill="#18181B"/>
</g>
<defs>
<clipPath id="clip0_7070_9527">
<rect width="24" height="24" fill="white"/>
</clipPath>
</defs>
</svg>
