<svg width="24" height="24" viewBox="0 0 24 24" fill="none" xmlns="http://www.w3.org/2000/svg">
<path d="M3.65206 5.58611L2.49994 4.68555" stroke="#18181B" stroke-width="1.09431" stroke-miterlimit="1.5" stroke-linecap="round" stroke-linejoin="round"/>
<path d="M5.39589 4.80587L5.07239 4.00464" stroke="#18181B" stroke-width="0.991108" stroke-miterlimit="1.5" stroke-linecap="round" stroke-linejoin="round"/>
<path d="M3.35705 7.41171L2.5014 7.29126" stroke="#18181B" stroke-width="0.99111" stroke-miterlimit="1.5" stroke-linecap="round" stroke-linejoin="round"/>
<path d="M20.348 5.59759L21.5001 4.69702" stroke="#18181B" stroke-width="1.09431" stroke-miterlimit="1.5" stroke-linecap="round" stroke-linejoin="round"/>
<path d="M18.6041 4.81735L18.9276 4.01611" stroke="#18181B" stroke-width="0.991108" stroke-miterlimit="1.5" stroke-linecap="round" stroke-linejoin="round"/>
<path d="M20.643 7.4227L21.4986 7.30225" stroke="#18181B" stroke-width="0.99111" stroke-miterlimit="1.5" stroke-linecap="round" stroke-linejoin="round"/>
<path fill-rule="evenodd" clip-rule="evenodd" d="M12.4889 20.4215C12.3741 20.5765 12.1924 20.6679 11.9993 20.6679C11.8062 20.6679 11.6246 20.5765 11.5098 20.4215C9.9781 18.3584 5.31231 12.0728 4.12003 10.4666C3.95522 10.2447 3.96066 9.93899 4.13308 9.72305C4.94952 8.69829 7.23835 5.82637 7.90303 4.99199C8.01888 4.84676 8.19457 4.76245 8.38005 4.76245C9.61476 4.76245 14.3774 4.76245 15.6115 4.76245C15.797 4.76245 15.9727 4.84676 16.088 4.99199C16.7538 5.82528 19.047 8.69775 19.865 9.72305C20.038 9.93899 20.0434 10.2447 19.8781 10.4671C18.6858 12.0733 14.02 18.3589 12.4889 20.4215Z" fill="#1870E7"/>
<path d="M13.4471 5.69507L15.3102 10.0898L12.6137 19.0425" stroke="white" stroke-width="1.09563" stroke-miterlimit="1.5" stroke-linecap="round" stroke-linejoin="round"/>
<path d="M10.5625 5.69507L8.69935 10.0898L11.3959 19.0425" stroke="white" stroke-width="1.09563" stroke-miterlimit="1.5" stroke-linecap="round" stroke-linejoin="round"/>
<path d="M5.17572 10.0898H18.8233" stroke="white" stroke-width="1.09563" stroke-miterlimit="1.5" stroke-linecap="round" stroke-linejoin="round"/>
<path fill-rule="evenodd" clip-rule="evenodd" d="M12.4889 20.4218C12.3741 20.5768 12.1924 20.6682 11.9993 20.6682C11.8062 20.6682 11.6246 20.5768 11.5098 20.4218C9.9781 18.3586 5.31231 12.073 4.12003 10.4668C3.95522 10.2449 3.96066 9.93923 4.13308 9.72329C4.94952 8.69854 7.23835 5.82661 7.90303 4.99223C8.01888 4.847 8.19457 4.7627 8.38005 4.7627C9.61476 4.7627 14.3774 4.7627 15.6115 4.7627C15.797 4.7627 15.9727 4.847 16.088 4.99223C16.7538 5.82553 19.047 8.69799 19.865 9.72329C20.038 9.93923 20.0434 10.2449 19.8781 10.4674C18.6858 12.0736 14.02 18.3592 12.4889 20.4218Z" fill="#1870E7"/>
<path d="M13.3397 5.44263C13.4789 5.38361 13.6399 5.449 13.699 5.58813L15.491 9.81567H18.8231C18.9743 9.81567 19.0975 9.93881 19.0975 10.0901C19.0974 10.2413 18.9743 10.3635 18.8231 10.3635H15.5135L12.8758 19.1213C12.8322 19.2661 12.6797 19.3484 12.535 19.3049C12.3901 19.2613 12.3078 19.108 12.3514 18.9631L14.9412 10.3635H9.06818L11.658 18.9631C11.7016 19.108 11.6193 19.2613 11.4744 19.3049C11.3297 19.3483 11.1772 19.2661 11.1336 19.1213L8.49591 10.3635H5.1756C5.0244 10.3635 4.90224 10.2413 4.90216 10.0901C4.90216 9.93883 5.02435 9.81571 5.1756 9.81567H8.51837L10.3104 5.58813C10.3695 5.44897 10.5305 5.3836 10.6697 5.44263C10.8089 5.50173 10.8733 5.66279 10.8143 5.802L9.1131 9.81567H14.8963L13.1951 5.802C13.1361 5.66282 13.2006 5.50177 13.3397 5.44263Z" fill="white"/>
<path d="M21.4639 7.05713C21.5994 7.03805 21.7251 7.13256 21.7442 7.26807C21.763 7.40337 21.6686 7.52823 21.5333 7.54736L20.6778 7.66846C20.5424 7.68752 20.4167 7.59288 20.3975 7.45752C20.3784 7.32201 20.473 7.19632 20.6085 7.17725L21.4639 7.05713ZM2.53619 7.04541L3.39166 7.1665C3.52696 7.1856 3.62139 7.3105 3.6026 7.4458C3.58352 7.58131 3.45783 7.67581 3.32233 7.65674L2.46686 7.53662C2.33135 7.51754 2.23684 7.39185 2.25592 7.25635C2.27516 7.12102 2.4008 7.02635 2.53619 7.04541ZM21.3311 4.48193C21.4502 4.38888 21.6228 4.40977 21.7159 4.52881C21.8087 4.64772 21.7877 4.81953 21.669 4.9126L20.5167 5.81299C20.3977 5.906 20.2259 5.88503 20.1329 5.76611C20.0398 5.64707 20.0607 5.47537 20.1797 5.38232L21.3311 4.48193ZM2.28424 4.51709C2.37724 4.39813 2.549 4.37736 2.66803 4.47021L3.82037 5.37061C3.9394 5.46364 3.96025 5.63535 3.86725 5.75439C3.77424 5.87339 3.6025 5.89517 3.48346 5.80225L2.33112 4.90088C2.21242 4.80776 2.19129 4.636 2.28424 4.51709ZM18.6983 3.92334C18.7496 3.79662 18.8938 3.73542 19.0206 3.78662C19.1473 3.83793 19.2085 3.98208 19.1573 4.10889L18.834 4.91064C18.7828 5.03719 18.6385 5.09824 18.5118 5.04736C18.385 4.99619 18.3232 4.85188 18.3741 4.7251L18.6983 3.92334ZM4.97955 3.7749C5.10631 3.72372 5.25044 3.785 5.30182 3.91162L5.62604 4.71338C5.67706 4.8402 5.61513 4.98445 5.48834 5.03564C5.36156 5.08667 5.21733 5.02563 5.16608 4.89893L4.84283 4.09717C4.79176 3.97034 4.85276 3.82612 4.97955 3.7749Z" fill="#18181B"/>
</svg>
