<svg width="24" height="24" viewBox="0 0 24 24" fill="none" xmlns="http://www.w3.org/2000/svg">
<path fill-rule="evenodd" clip-rule="evenodd" d="M19.6994 16.4399V5.01805C19.6994 4.89102 19.6498 4.76985 19.5614 4.67933C19.1577 4.26614 17.9817 3.0638 17.5721 2.6455C17.4809 2.55279 17.3561 2.50024 17.2261 2.50024C15.9763 2.50024 9.40108 2.50024 9.40108 2.50024C9.02513 2.50024 8.71997 2.80464 8.71997 3.1806V16.4399C8.71997 16.8151 9.02513 17.1202 9.40108 17.1202H19.019C19.395 17.1202 19.6994 16.8151 19.6994 16.4399Z" fill="#1870E7"/>
<path d="M14.7039 12.6946C14.8557 12.6947 14.9783 12.8182 14.9783 12.97C14.9783 13.1218 14.8557 13.2453 14.7039 13.2454H11.7078C11.5561 13.2453 11.4334 13.1218 11.4334 12.97C11.4334 12.8182 11.556 12.6947 11.7078 12.6946H14.7039ZM16.7108 10.0208C16.8626 10.0208 16.9861 10.1443 16.9861 10.2961C16.986 10.4479 16.8625 10.5705 16.7108 10.5706H11.7078C11.5561 10.5705 11.4336 10.4478 11.4334 10.2961C11.4334 10.1443 11.556 10.0209 11.7078 10.0208H16.7108ZM16.7108 7.34692C16.8626 7.34694 16.9861 7.47045 16.9861 7.62231C16.9859 7.77399 16.8625 7.89671 16.7108 7.89673H11.7078C11.5562 7.89662 11.4336 7.77394 11.4334 7.62231C11.4334 7.4705 11.556 7.34703 11.7078 7.34692H16.7108ZM17.1346 3.29712C17.2863 3.29728 17.409 3.42073 17.409 3.57251V4.79712H18.6346C18.7863 4.79727 18.909 4.92073 18.909 5.07251C18.9089 5.22423 18.7863 5.34677 18.6346 5.34692H17.1346C16.9828 5.34692 16.8593 5.22432 16.8592 5.07251V3.57251C16.8592 3.42063 16.9827 3.29712 17.1346 3.29712Z" fill="white"/>
<path d="M10.2371 4.41553C10.389 4.41553 10.5125 4.53904 10.5125 4.69092C10.5124 4.84272 10.3889 4.96533 10.2371 4.96533H7.25958C7.00927 4.96546 6.8047 5.16974 6.8045 5.42041V18.5806C6.8045 18.8309 7.00933 19.0355 7.25958 19.0356H16.7791C17.03 19.0356 17.2342 18.8311 17.2342 18.5806C17.2343 18.4288 17.3578 18.3062 17.5096 18.3062C17.6612 18.3063 17.7839 18.4289 17.784 18.5806C17.784 19.1345 17.3341 19.5854 16.7791 19.5854H15.5945V20.771C15.5944 21.3247 15.1444 21.7757 14.5897 21.7759H5.07013C4.51612 21.7759 4.06542 21.325 4.06525 20.771V7.61084C4.06525 7.05581 4.51619 6.60596 5.07013 6.60596H6.2547V5.42041C6.25489 4.86562 6.70587 4.41565 7.25958 4.41553H10.2371ZM5.07013 7.15576C4.81959 7.15576 4.61505 7.35993 4.61505 7.61084V20.771C4.61523 21.0212 4.81988 21.2261 5.07013 21.2261H14.5897C14.8403 21.2259 15.0446 21.0213 15.0447 20.771V19.5854H7.25958C6.70557 19.5853 6.2547 19.1346 6.2547 18.5806V7.15576H5.07013Z" fill="#18181B"/>
</svg>
