<svg width="24" height="24" viewBox="0 0 24 24" fill="none" xmlns="http://www.w3.org/2000/svg">
<path fill-rule="evenodd" clip-rule="evenodd" d="M19.993 11.859C19.993 11.6999 19.9297 11.5473 19.8172 11.4348C19.7047 11.3222 19.5521 11.259 19.393 11.259H8.56451C8.40538 11.259 8.25272 11.3222 8.1402 11.4348C8.02768 11.5473 7.96454 11.6999 7.96454 11.859V19.74C7.96454 19.8992 8.02768 20.0518 8.1402 20.1643C8.25272 20.2768 8.40538 20.34 8.56451 20.34H19.393C19.5521 20.34 19.7047 20.2768 19.8172 20.1643C19.9297 20.0518 19.993 19.8992 19.993 19.74V11.859Z" fill="#1870E7"/>
<path fill-rule="evenodd" clip-rule="evenodd" d="M13.978 14.5014C13.8341 14.5014 13.7175 14.618 13.7175 14.7619C13.7175 14.9058 13.8341 15.0224 13.978 15.0224C14.1219 15.0224 14.2385 14.9058 14.2385 14.7619C14.2385 14.618 14.1219 14.5014 13.978 14.5014ZM13.1675 14.7619C13.1675 14.3143 13.5304 13.9514 13.978 13.9514C14.4256 13.9514 14.7885 14.3143 14.7885 14.7619C14.7885 15.2095 14.4256 15.5724 13.978 15.5724C13.5304 15.5724 13.1675 15.2095 13.1675 14.7619Z" fill="white"/>
<path fill-rule="evenodd" clip-rule="evenodd" d="M12.1965 16.4076C12.1965 16.2557 12.3196 16.1326 12.4715 16.1326H15.4865C15.6384 16.1326 15.7615 16.2557 15.7615 16.4076C15.7615 16.5594 15.6384 16.6826 15.4865 16.6826H12.4715C12.3196 16.6826 12.1965 16.5594 12.1965 16.4076Z" fill="white"/>
<path fill-rule="evenodd" clip-rule="evenodd" d="M12.7732 17.32C12.7732 17.2019 12.8689 17.1062 12.9869 17.1062H14.971C15.089 17.1062 15.1847 17.2019 15.1847 17.32C15.1847 17.438 15.089 17.5337 14.971 17.5337H12.9869C12.8689 17.5337 12.7732 17.438 12.7732 17.32Z" fill="white"/>
<path d="M21.321 20.9998C21.4729 20.9998 21.5964 21.1233 21.5964 21.2751C21.5964 21.427 21.4729 21.5505 21.321 21.5505H6.6384C6.48655 21.5505 6.36305 21.427 6.36301 21.2751C6.36301 21.1233 6.48652 20.9998 6.6384 20.9998H21.321ZM8.72433 2.40503C8.7659 2.4034 8.8078 2.41158 8.84738 2.42944C8.97324 2.43219 9.09935 2.43865 9.22531 2.44897C10.452 2.54958 11.6226 3.00671 12.5925 3.7644C13.5625 4.52219 14.2898 5.54764 14.6843 6.71362C15.0787 7.87955 15.1228 9.13591 14.8122 10.3269C14.7737 10.4735 14.624 10.5614 14.4773 10.5232C14.3303 10.4849 14.2417 10.3342 14.28 10.1873C14.3851 9.78411 14.4455 9.37291 14.4616 8.96069H11.57C11.558 9.40359 11.5229 9.84431 11.4577 10.2742C11.4348 10.4241 11.2943 10.5273 11.1443 10.5046C10.9941 10.4819 10.891 10.3413 10.9138 10.1912C10.9749 9.78795 11.0083 9.3753 11.0202 8.96069H6.33957C6.3525 9.37314 6.38819 9.78486 6.45383 10.1882V10.1892C6.5656 10.8963 6.77004 11.586 7.06125 12.24C7.0889 12.3023 7.09003 12.3689 7.07199 12.4294C7.05195 12.5616 6.93921 12.6628 6.80148 12.6628H4.50168C5.16248 13.3708 5.9928 13.9028 6.91769 14.2058C7.06189 14.2531 7.1406 14.4083 7.09348 14.5525C7.04623 14.6967 6.89103 14.7753 6.7468 14.7283C5.57704 14.3451 4.54421 13.6284 3.77707 12.6658C3.00999 11.7032 2.54192 10.5369 2.42941 9.31128C2.31695 8.08557 2.56516 6.85344 3.14426 5.76733C3.72334 4.68132 4.6079 3.78863 5.6882 3.19897C6.58221 2.71109 7.57847 2.44858 8.59055 2.42944C8.63344 2.40971 8.67932 2.40181 8.72433 2.40503ZM2.95871 8.96069C2.96263 9.0606 2.9681 9.16058 2.97726 9.2605C3.07205 10.2935 3.44388 11.2801 4.05148 12.1169C4.06398 12.1152 4.07659 12.1131 4.08957 12.113H6.41281C6.17943 11.5209 6.0104 10.9046 5.91086 10.2751C5.84064 9.84334 5.79897 9.40281 5.78586 8.96069H2.95871ZM4.1218 5.25854C3.93874 5.50014 3.77343 5.7564 3.62961 6.02612C3.23506 6.76612 3.00944 7.58033 2.96262 8.41089H5.78586C5.80721 7.52214 5.94286 6.63856 6.19699 5.81909C6.25601 5.62881 6.3223 5.44191 6.39426 5.25854H4.1218ZM6.98703 5.25854C6.88752 5.49114 6.79965 5.73306 6.72238 5.98218C6.48513 6.74721 6.35884 7.57554 6.33762 8.41089H11.0212C11.0009 7.57753 10.8828 6.74849 10.657 5.98218C10.5835 5.73299 10.4991 5.49101 10.404 5.25854H6.98703ZM10.9939 5.25854C11.0636 5.44418 11.1275 5.63341 11.1843 5.82593C11.4258 6.64506 11.5506 7.52722 11.571 8.41089H14.4568C14.4277 7.89559 14.33 7.38346 14.1628 6.8894C13.9633 6.29974 13.6705 5.74961 13.2986 5.25854H10.9939ZM7.8093 3.04858C7.16183 3.15112 6.5332 3.36415 5.95187 3.6814C5.44876 3.95597 4.99214 4.30245 4.59543 4.70776H6.63644C6.94251 4.08163 7.33205 3.51583 7.8093 3.04858ZM8.71848 3.00269C8.12029 3.42647 7.63142 4.01334 7.25461 4.70776H10.1482C9.78406 4.00898 9.30758 3.42177 8.71848 3.00269ZM9.62375 3.05054C10.0903 3.51626 10.4674 4.08186 10.7614 4.70776H12.823C12.6453 4.52627 12.4553 4.35554 12.2536 4.198C11.4859 3.59832 10.5808 3.20441 9.62375 3.05054Z" fill="#18181B"/>
</svg>
