<svg width="24" height="24" viewBox="0 0 24 24" fill="none" xmlns="http://www.w3.org/2000/svg">
<path fill-rule="evenodd" clip-rule="evenodd" d="M5.02697 6.24965C4.96836 6.36947 4.96229 6.50797 5.00917 6.633C5.40209 7.71101 7.67532 13.7475 7.67532 13.7475C7.72178 13.8708 7.65927 14.0089 7.53597 14.0553C7.41266 14.1018 7.27503 14.0393 7.22858 13.916C7.22858 13.916 5.74985 9.98991 5.32568 8.8624C5.24145 8.63925 5.01091 8.50682 4.7756 8.5472C4.69832 8.56804 4.61973 8.58889 4.54245 8.61798C3.91379 8.85546 3.59643 9.55879 3.83391 10.1874L5.83885 15.492C5.70383 15.8384 4.39658 14.5268 4.39658 14.5268C3.86864 14.1109 3.1028 14.2021 2.68687 14.7296C2.27095 15.2575 2.63043 16.0972 2.97819 16.5539C4.00844 17.9054 6.46707 20.8143 9.97983 20.8143C12.7966 20.8143 15.0833 18.5272 15.0833 15.7104C15.0833 13.8561 12.6803 8.78643 12.6803 8.78643C12.4428 8.15821 11.7395 7.84039 11.1108 8.07788C11.0222 8.11174 10.9762 8.20943 11.0075 8.2993C11.2623 9.03476 12.3716 12.2328 12.3716 12.2328C12.4146 12.3574 12.3486 12.4933 12.224 12.5367C12.0994 12.5797 11.9635 12.5136 11.9201 12.389L10.4995 8.29236L9.97895 6.91434C9.74104 6.28568 9.03814 5.96833 8.40948 6.20582C8.31267 6.24229 8.22324 6.29003 8.14248 6.34647C7.96231 6.47151 7.8872 6.70118 7.95883 6.90827C8.35739 8.08397 9.90384 12.5445 9.90384 12.5445C9.94726 12.6687 9.88127 12.805 9.75667 12.848C9.63207 12.8914 9.49574 12.8254 9.45275 12.7008L7.44478 6.91087L7.24507 6.38206C7.00759 5.7534 6.30426 5.43605 5.67561 5.67354C5.38472 5.78338 5.16025 5.99349 5.02697 6.24965Z" fill="#1870E7"/>
<path d="M16.7546 3.00952C17.002 2.90387 17.2831 2.88792 17.5866 2.98901C17.9214 3.10062 18.1604 3.29523 18.3151 3.54272C18.4666 3.78505 18.5269 4.06095 18.5407 4.32397C18.56 4.69289 18.4866 5.06936 18.4079 5.36597C18.5868 5.3643 18.8095 5.39668 19.0866 5.48901C19.5891 5.65651 19.8231 6.07861 19.8962 6.51733C19.9681 6.94914 19.8949 7.43323 19.7604 7.83667C19.6393 8.19998 19.3302 9.37512 19.0475 10.4744C18.9071 11.0207 18.774 11.544 18.6765 11.9304C18.6714 11.9506 18.6659 11.9708 18.6608 11.991C18.81 11.9045 19.0025 11.7988 19.2565 11.6736C19.6299 11.4896 20.0451 11.3234 20.4216 11.2644C20.7885 11.2069 21.2118 11.2399 21.4704 11.5847C21.895 12.1509 21.7793 12.8435 21.4255 13.4919C21.0696 14.1441 20.4389 14.8263 19.6765 15.4617C18.9122 16.0985 17.9622 16.7309 17.2087 17.2019C16.8309 17.438 16.4996 17.6344 16.2634 17.7722C16.1452 17.8411 16.0503 17.8963 15.985 17.9333C15.9526 17.9518 15.927 17.9657 15.9099 17.9753L15.8903 17.9861L15.8835 17.99C15.7507 18.0637 15.5832 18.0163 15.5095 17.8835C15.4357 17.7508 15.4841 17.5833 15.6169 17.5095L15.6227 17.5066L15.6413 17.4958C15.6577 17.4866 15.682 17.4728 15.7136 17.4548C15.7771 17.4187 15.8699 17.3653 15.986 17.2976C16.2185 17.162 16.5445 16.9677 16.9167 16.7351C17.6631 16.2686 18.5883 15.6518 19.3239 15.0388C20.0613 14.4243 20.6342 13.7949 20.9431 13.2292C21.2538 12.6599 21.2641 12.2269 21.03 11.9148C20.9592 11.8205 20.8107 11.7597 20.5065 11.8074C20.2121 11.8536 19.8562 11.992 19.4997 12.1677C19.0331 12.3976 18.9221 12.4463 18.4997 12.7498C18.4137 12.8118 18.3024 12.8164 18.2126 12.7712C18.2034 12.77 18.1943 12.7686 18.1852 12.7664H18.1833C18.1806 12.7657 18.1781 12.7642 18.1755 12.7634C18.1648 12.7604 18.1537 12.7581 18.1432 12.7537C17.2075 12.3599 15.8585 12.1594 15.0016 12.3455C14.8533 12.3777 14.7068 12.2839 14.6745 12.1355C14.6422 11.9871 14.736 11.8406 14.8845 11.8083C15.7872 11.6121 17.0745 11.7838 18.0583 12.1326C18.0865 12.0203 18.1149 11.9079 18.1432 11.7957C18.241 11.4087 18.3746 10.8849 18.5153 10.3376C18.7951 9.24954 19.1101 8.04947 19.239 7.66284C19.3544 7.31655 19.4071 6.92615 19.3542 6.60815C19.3023 6.29688 19.1603 6.093 18.9128 6.0105C18.5698 5.89622 18.3842 5.90687 18.3024 5.92456C18.2694 5.93174 18.2507 5.94127 18.2438 5.94507C18.2419 5.94703 18.239 5.94806 18.237 5.94995C18.0968 6.44224 17.8387 7.41136 17.5944 8.34351C17.4438 8.91834 17.299 9.47495 17.1921 9.88745L17.0641 10.3826L17.0163 10.5681C16.9784 10.7152 16.8284 10.8042 16.6813 10.7664C16.5343 10.7285 16.4462 10.5785 16.4841 10.4314L16.5319 10.2449L16.6599 9.74976C16.7668 9.33704 16.9114 8.78019 17.0622 8.20483C17.3621 7.06046 17.6913 5.82316 17.7927 5.51343C17.889 5.2189 18.0133 4.76535 17.9919 4.35327C17.9813 4.15016 17.9353 3.97384 17.8483 3.83472C17.7646 3.70079 17.6324 3.58369 17.4128 3.5105C17.231 3.44996 17.0894 3.46509 16.9714 3.51538C16.8466 3.56866 16.727 3.67111 16.6159 3.81714C16.3982 4.10353 16.2547 4.50031 16.1745 4.79077C16.1744 4.79245 16.1746 4.79409 16.1745 4.79565C16.1729 4.81748 16.17 4.84197 16.1667 4.86499C16.1599 4.91174 16.1487 4.97168 16.1354 5.04077C16.1086 5.18006 16.0687 5.36897 16.0202 5.58862C15.9231 6.02854 15.7906 6.60053 15.6569 7.16675C15.5232 7.73322 15.3883 8.29532 15.2868 8.71558C15.2361 8.92575 15.1935 9.10114 15.1638 9.22339L15.1169 9.41479C15.0809 9.56231 14.9324 9.65292 14.7849 9.61694C14.6374 9.58095 14.5469 9.43233 14.5827 9.28491L14.6296 9.09351C14.6592 8.97148 14.701 8.79654 14.7516 8.58667C14.853 8.16693 14.9883 7.60611 15.1218 7.04077C15.2553 6.4753 15.3869 5.90635 15.4831 5.47046C15.5312 5.25242 15.57 5.06911 15.5954 4.93726C15.6082 4.87089 15.6178 4.82014 15.6227 4.78589V4.78394C15.5539 4.58946 15.3158 4.27515 14.7497 4.27515C14.6328 4.27529 14.4725 4.37249 14.2888 4.68628C14.115 4.98307 13.9697 5.39285 13.8532 5.82202C13.7016 6.38057 13.5899 6.95571 13.5231 7.53101C13.5059 7.68188 13.3693 7.79044 13.2184 7.77319C13.0614 7.75509 12.9605 7.6103 12.9782 7.45776C13.0194 7.12098 13.0732 6.78432 13.1403 6.45093C12.8971 6.31779 12.7022 6.27811 12.5475 6.28589C12.3784 6.29443 12.2355 6.35674 12.1159 6.44214C11.9666 6.54881 11.8284 6.70283 11.7477 6.86987C11.6827 7.0025 11.5168 7.06319 11.3806 6.9978C11.2454 6.93267 11.1876 6.76575 11.2526 6.63062C11.2908 6.55174 11.3393 6.47702 11.3903 6.40601C11.4775 6.28472 11.6117 6.12693 11.7966 5.99487C11.9831 5.86167 12.2247 5.75204 12.5192 5.73706C12.7506 5.72537 13.0005 5.77314 13.2663 5.89526C13.2845 5.82268 13.3024 5.74963 13.322 5.67749C13.4429 5.23202 13.6037 4.76725 13.8141 4.40796C14.0146 4.0658 14.3168 3.72548 14.7497 3.72534C15.2403 3.72534 15.5912 3.89686 15.8239 4.1189C15.9134 3.90416 16.0295 3.67978 16.1774 3.48511C16.3244 3.2918 16.514 3.11234 16.7546 3.00952ZM8.55829 4.1521C8.66558 4.04486 8.83956 4.04504 8.94696 4.1521L9.47137 4.67651C9.57876 4.78389 9.57873 4.95779 9.47137 5.06519C9.36398 5.17258 9.1901 5.17258 9.0827 5.06519L8.55829 4.54077C8.4512 4.43335 8.451 4.25939 8.55829 4.1521ZM12.2809 3.15503C12.4275 3.19439 12.5145 3.34531 12.4753 3.49194L12.2829 4.20776C12.2436 4.35437 12.0936 4.44121 11.947 4.4021C11.8004 4.36284 11.7127 4.21269 11.7516 4.06616L11.944 3.34937C11.9835 3.20284 12.1343 3.11575 12.2809 3.15503ZM10.0251 2.29468C10.1718 2.25537 10.3227 2.34329 10.362 2.48999L10.6872 3.70093C10.7265 3.8475 10.6393 3.99837 10.4929 4.03784C10.3462 4.07715 10.1953 3.99021 10.1559 3.84351L9.83075 2.63159C9.79169 2.48508 9.87865 2.33406 10.0251 2.29468Z" fill="#18181B"/>
</svg>
