<svg width="24" height="24" viewBox="0 0 24 24" fill="none" xmlns="http://www.w3.org/2000/svg">
<path fill-rule="evenodd" clip-rule="evenodd" d="M20.2447 11.4993C20.2447 10.948 19.7963 10.4998 19.2447 10.4998H4.75535C4.20383 10.4998 3.75537 10.948 3.75537 11.4993V20.4998C3.75537 21.0518 4.20383 21.4993 4.75535 21.4993H19.2447C19.7963 21.4993 20.2447 21.0518 20.2447 20.4998V11.4993Z" fill="#1870E7"/>
<path fill-rule="evenodd" clip-rule="evenodd" d="M11.9988 14.0073C11.1654 14.0073 10.4888 14.6839 10.4888 15.5173C10.4888 16.1161 10.8382 16.6352 11.3459 16.8792C11.4412 16.925 11.5018 17.0214 11.5018 17.1271V18.2395C11.5018 18.5137 11.7247 18.7366 11.9988 18.7366C12.2736 18.7366 12.4964 18.5136 12.4964 18.2395V17.1271C12.4964 17.0214 12.5569 16.9251 12.6522 16.8793C13.1594 16.6352 13.5089 16.1162 13.5089 15.5173C13.5089 14.6839 12.8323 14.0073 11.9988 14.0073ZM9.93878 15.5173C9.93878 14.3801 10.8616 13.4573 11.9988 13.4573C13.136 13.4573 14.0589 14.3801 14.0589 15.5173C14.0589 16.2724 13.6518 16.933 13.0464 17.2915V18.2395C13.0464 18.8175 12.5771 19.2866 11.9988 19.2866C11.421 19.2866 10.9518 18.8174 10.9518 18.2395V17.2915C10.3459 16.9331 9.93878 16.2724 9.93878 15.5173Z" fill="white"/>
<path fill-rule="evenodd" clip-rule="evenodd" d="M11.9988 2.77437C9.32092 2.77437 7.14692 4.94836 7.14692 7.6262V9.33607C7.14692 9.48795 7.0238 9.61107 6.87192 9.61107C6.72005 9.61107 6.59692 9.48795 6.59692 9.33607V7.6262C6.59692 4.64461 9.01717 2.22437 11.9988 2.22437C14.9798 2.22437 17.4 4.64463 17.4 7.6262V9.33607C17.4 9.48795 17.2769 9.61107 17.125 9.61107C16.9732 9.61107 16.85 9.48795 16.85 9.33607V7.6262C16.85 4.94834 14.676 2.77437 11.9988 2.77437Z" fill="#18181B"/>
</svg>
