<svg width="24" height="24" viewBox="0 0 24 24" fill="none" xmlns="http://www.w3.org/2000/svg">
<path d="M3.88379 8.44922C3.99766 8.47253 4.08393 8.57359 4.08398 8.69434C4.08398 8.81513 3.99768 8.91612 3.88379 8.93945L3.83398 8.94434H3.22266C2.68576 8.94437 2.25003 9.38009 2.25 9.91699V18.7783C2.25029 19.315 2.68591 19.75 3.22266 19.75H10.25L10.3008 19.7549C10.4145 19.7783 10.4999 19.8794 10.5 20C10.4999 20.1206 10.4145 20.2217 10.3008 20.2451L10.25 20.25H3.22266C2.40977 20.25 1.75029 19.5911 1.75 18.7783V9.91699C1.75003 9.10395 2.40961 8.44437 3.22266 8.44434H3.83398L3.88379 8.44922ZM20.9443 8.44434C21.7574 8.44437 22.417 9.10395 22.417 9.91699V18.7783C22.4167 19.5911 21.7572 20.25 20.9443 20.25H13.917L13.8662 20.2451C13.7523 20.2218 13.667 20.1208 13.667 20C13.667 19.8792 13.7523 19.7782 13.8662 19.7549L13.917 19.75H20.9443C21.4811 19.75 21.9167 19.315 21.917 18.7783V9.91699C21.917 9.38009 21.4812 8.94437 20.9443 8.94434H20.333L20.2832 8.93945C20.1693 8.91613 20.083 8.81514 20.083 8.69434C20.0831 8.57359 20.1693 8.47253 20.2832 8.44922L20.333 8.44434H20.9443Z" fill="#18181B"/>
<path d="M5.36133 3.5C8.74701 3.92326 10.8496 5.29367 11.75 6.18262V16.501C11.3559 16.9439 10.6775 17.1581 10.0771 16.958C8.32456 16.3739 6.36691 16.0992 5.36133 16.0273V3.5ZM18.8057 16.0273C17.8002 16.0992 15.8425 16.3739 14.0898 16.958C13.3932 17.1902 12.59 16.8659 12.25 16.2715V6.35547C13.0382 5.48278 15.1912 3.95181 18.8057 3.5V16.0273Z" fill="#1870E7"/>
</svg>
