<svg width="24" height="24" viewBox="0 0 24 24" fill="none" xmlns="http://www.w3.org/2000/svg">
<path d="M11.8318 11.4502C13.4193 11.4502 14.7078 12.7325 14.7078 14.3164C14.7078 15.366 14.1404 16.28 13.2967 16.7793C14.9849 17.1345 15.9874 18.0909 16.5711 19.0615C16.9347 19.6661 17.1326 20.269 17.2401 20.7188C17.2938 20.944 17.3255 21.1323 17.3436 21.2656C17.3526 21.3324 17.3586 21.3857 17.3621 21.4229C17.3638 21.4411 17.3653 21.4555 17.366 21.4658L17.367 21.4785V21.4834V21.4844C17.3756 21.6359 17.2597 21.7657 17.1082 21.7744C16.9567 21.7831 16.827 21.6671 16.8182 21.5156V21.5146L16.8172 21.5078C16.8167 21.5008 16.8157 21.4887 16.8143 21.4736C16.8114 21.4436 16.8065 21.3982 16.7986 21.3398C16.7827 21.2221 16.7549 21.0509 16.7059 20.8457C16.6076 20.4344 16.427 19.889 16.1004 19.3457C15.4563 18.2746 14.2297 17.185 11.8445 17.1816C11.8403 17.1817 11.8361 17.1826 11.8318 17.1826C11.8279 17.1826 11.824 17.1817 11.8201 17.1816C9.43614 17.1857 8.21019 18.2749 7.56622 19.3457C7.23957 19.889 7.05903 20.4344 6.96075 20.8457C6.91174 21.0509 6.88391 21.2221 6.86798 21.3398C6.86009 21.3982 6.85519 21.4435 6.85236 21.4736C6.85094 21.4887 6.84996 21.5008 6.84943 21.5078L6.84845 21.5146V21.5156C6.8396 21.667 6.70985 21.783 6.55841 21.7744C6.40688 21.7657 6.29105 21.6359 6.29962 21.4844C6.302 21.4847 6.32646 21.4857 6.57404 21.5L6.29962 21.4834V21.4785L6.3006 21.4658C6.30137 21.4555 6.30279 21.4411 6.3045 21.4229C6.30799 21.3857 6.31305 21.3324 6.32208 21.2656C6.34012 21.1323 6.37183 20.9439 6.4256 20.7188C6.53302 20.269 6.73095 19.6661 7.09454 19.0615C7.67798 18.0914 8.68018 17.135 10.367 16.7793C9.52335 16.28 8.9559 15.3659 8.95587 14.3164C8.95587 12.7325 10.2444 11.4502 11.8318 11.4502ZM11.8318 12C10.5461 12 9.50568 13.0382 9.50568 14.3164C9.50571 15.5907 10.5399 16.6255 11.8201 16.6318H11.8436C13.1239 16.6256 14.158 15.5907 14.158 14.3164C14.158 13.0382 13.1176 12 11.8318 12Z" fill="#18181B"/>
<path d="M5.65723 5.94434C7.40098 5.94434 8.81443 7.35781 8.81445 9.10156C8.81445 10.8453 7.401 12.2588 5.65723 12.2588C3.91353 12.2587 2.5 10.8453 2.5 9.10156C2.50002 7.35786 3.91354 5.94442 5.65723 5.94434ZM18.0215 5.94434C19.7652 5.94434 21.1787 7.35781 21.1787 9.10156C21.1787 10.8453 19.7653 12.2588 18.0215 12.2588C16.2778 12.2586 14.8643 10.8452 14.8643 9.10156C14.8643 7.3579 16.2779 5.94448 18.0215 5.94434ZM11.8398 2.5C13.5834 2.50018 14.997 3.91364 14.9971 5.65723C14.9971 7.40088 13.5835 8.81427 11.8398 8.81445C10.0961 8.81445 8.68262 7.401 8.68262 5.65723C8.68271 3.91353 10.0961 2.5 11.8398 2.5Z" fill="#1870E7"/>
<path d="M6.82166 8.01392C6.90546 7.88727 7.07586 7.853 7.20251 7.93677C7.32917 8.02058 7.36445 8.19097 7.28064 8.31763L5.90857 10.3909C5.86556 10.4557 5.79704 10.4995 5.72009 10.511C5.64293 10.5224 5.56438 10.5002 5.50427 10.4504L4.08728 9.27856C3.97028 9.18172 3.95431 9.00787 4.05115 8.89087C4.14802 8.77404 4.32093 8.75795 4.43787 8.85474L5.61853 9.83228L6.82166 8.01392ZM19.1859 8.01392C19.2697 7.8873 19.4401 7.85307 19.5668 7.93677C19.6934 8.02058 19.7287 8.19097 19.6449 8.31763L18.2728 10.3909C18.2298 10.4557 18.1613 10.4995 18.0844 10.511C18.0072 10.5224 17.9286 10.5002 17.8685 10.4504L16.4515 9.27856C16.3345 9.18172 16.3186 9.00787 16.4154 8.89087C16.5123 8.774 16.6852 8.75796 16.8021 8.85474L17.9828 9.83228L19.1859 8.01392ZM13.0043 4.56958C13.0881 4.44311 13.2585 4.40867 13.3851 4.49243C13.5116 4.57629 13.546 4.7467 13.4623 4.87329L12.0912 6.94653C12.0481 7.01161 11.9789 7.05519 11.9017 7.06665C11.8246 7.07806 11.746 7.05583 11.6859 7.0061L10.2699 5.83423C10.1529 5.73739 10.136 5.56353 10.2328 5.44653C10.3296 5.32953 10.5035 5.31356 10.6205 5.4104L11.8011 6.38794L13.0043 4.56958Z" fill="white"/>
</svg>
