<svg width="24" height="24" viewBox="0 0 24 24" fill="none" xmlns="http://www.w3.org/2000/svg">
<path fill-rule="evenodd" clip-rule="evenodd" d="M16.6561 16.7075C16.6561 16.7075 16.5113 15.659 14.2548 16.0676C13.4468 16.2138 12.2979 16.0725 11.4112 15.6541C10.3501 15.1527 9.90636 14.1824 7.38548 14.1275C5.76115 14.0924 3.57427 14.8469 2.79586 16.2729C2.23683 17.2974 2.37677 19.1869 4.03063 20.2726C5.47636 21.2218 11.3683 21.2809 15.4038 20.6206C18.2573 20.153 21.487 14.6971 21.487 14.6971C21.6585 14.3082 20.1003 13.0601 19.0343 14.5818C17.7461 16.4199 16.6561 16.7075 16.6561 16.7075Z" fill="#1870E7"/>
<path fill-rule="evenodd" clip-rule="evenodd" d="M16.7642 16.0936C16.9036 16.0335 17.0654 16.0977 17.1256 16.2372C17.2832 16.6026 17.2708 17.0261 17.139 17.3789C17.0079 17.7301 16.7395 18.0558 16.3419 18.1616C16.0581 18.237 15.6851 18.2919 15.2709 18.3428C15.0767 18.3667 14.8698 18.3901 14.6552 18.4144C14.639 18.4162 14.6228 18.418 14.6066 18.4199C14.3741 18.4462 14.1323 18.4737 13.8846 18.5044C12.8894 18.6277 11.8174 18.7999 10.9157 19.134C10.7733 19.1868 10.615 19.1141 10.5623 18.9717C10.5095 18.8292 10.5822 18.671 10.7246 18.6183C11.6905 18.2604 12.817 18.0825 13.8169 17.9586C14.0679 17.9275 14.3122 17.8997 14.5447 17.8733C14.5608 17.8715 14.5768 17.8697 14.5927 17.8679C14.808 17.8435 15.0124 17.8204 15.2038 17.7969C15.6187 17.7459 15.9574 17.6947 16.2006 17.6301C16.3761 17.5834 16.5343 17.426 16.6238 17.1865C16.7127 16.9483 16.7147 16.6732 16.6206 16.455C16.5604 16.3156 16.6247 16.1538 16.7642 16.0936Z" fill="white"/>
<path d="M13.9089 2.72534C15.6037 2.72545 16.978 4.0989 16.9782 5.7937C16.9782 6.94511 16.343 7.94726 15.405 8.47241C16.9987 8.83134 17.9514 9.74976 18.5095 10.6814C18.8624 11.2706 19.0546 11.8575 19.1589 12.2957C19.2111 12.5151 19.242 12.6988 19.2595 12.8289C19.2683 12.8939 19.2737 12.946 19.2771 12.9822C19.2787 13 19.2792 13.0141 19.28 13.0242L19.281 13.0369V13.0398L19.282 13.0417L19.279 13.0974C19.2608 13.2241 19.1558 13.325 19.0232 13.3328C18.8717 13.3415 18.7411 13.2253 18.7321 13.074H9.08273C9.07391 13.2255 8.94327 13.3415 8.79172 13.3328C8.64025 13.3239 8.52424 13.1933 8.53293 13.0417V13.0398L8.53391 13.0369L8.53488 13.0242C8.53564 13.0141 8.53615 13 8.53781 12.9822C8.5412 12.946 8.54662 12.8939 8.55539 12.8289C8.57292 12.6988 8.60375 12.5151 8.65598 12.2957C8.76024 11.8575 8.95244 11.2706 9.30539 10.6814C9.86359 9.7496 10.8165 8.83024 12.4109 8.47144C11.4738 7.94603 10.8396 6.94446 10.8396 5.7937C10.8398 4.09883 12.214 2.72534 13.9089 2.72534ZM13.9089 8.86304C13.9028 8.86304 13.8965 8.8621 13.8904 8.86206C11.5854 8.86733 10.4 9.92389 9.77707 10.9636C9.46055 11.492 9.28632 12.0235 9.19113 12.4236C9.14373 12.6229 9.1167 12.7887 9.10129 12.9031C9.09365 12.9598 9.0884 13.0038 9.08566 13.033C9.0843 13.0476 9.08324 13.0593 9.08273 13.0662V13.073L18.7321 13.074V13.0662C18.7316 13.0593 18.7306 13.0476 18.7292 13.033C18.7265 13.0038 18.7212 12.9598 18.7136 12.9031C18.6982 12.7886 18.6712 12.6221 18.6237 12.4226C18.5285 12.0226 18.3542 11.4918 18.0378 10.9636C17.415 9.92396 16.2299 8.86748 13.9255 8.86206C13.92 8.86209 13.9144 8.86304 13.9089 8.86304ZM13.9089 3.27515C12.5177 3.27515 11.3896 4.40259 11.3894 5.7937C11.3894 7.18053 12.5101 8.305 13.8952 8.31226H13.9206C15.3065 8.30584 16.4275 7.18105 16.4275 5.7937C16.4272 4.40266 15.3 3.27525 13.9089 3.27515Z" fill="#18181B"/>
</svg>
