<svg width="24" height="24" viewBox="0 0 24 24" fill="none" xmlns="http://www.w3.org/2000/svg">
<path d="M5.55499 13.1466C5.85049 10.9531 7.50499 9.74651 9.74249 9.29651C9.82634 9.27989 9.91321 9.28812 9.99249 9.32007C10.6305 9.57391 11.3109 9.7041 11.9975 9.70361C12.6838 9.70518 13.364 9.57528 14.0015 9.32104C14.0823 9.2882 14.171 9.27993 14.2565 9.29712C16.492 9.74962 18.147 10.9546 18.443 13.1471L5.55499 13.1466ZM8.838 5.60608C8.83227 4.76088 9.16199 3.94788 9.75485 3.34546C10.3477 2.74304 11.1553 2.40037 12.0005 2.39258C12.8455 2.4005 13.653 2.74328 14.2456 3.3457C14.8383 3.94813 15.1678 4.76101 15.162 5.60608C15.168 6.45124 14.8385 7.26429 14.2458 7.86682C13.6531 8.46935 12.8456 8.81214 12.0005 8.82007C11.1554 8.81214 10.3479 8.46935 9.75517 7.86694C9.16242 7.26453 8.83276 6.45168 8.83849 5.60657L8.838 5.60608Z" fill="#1870E7"/>
<path d="M19.5746 12.7256C20.2261 12.7258 20.7118 13.3255 20.5766 13.9629L19.145 20.7129C19.0445 21.1865 18.6261 21.5254 18.142 21.5254H17.2504C17.0985 21.5254 16.975 21.4019 16.975 21.25C16.9751 21.0982 17.0986 20.9756 17.2504 20.9756H18.142C18.3664 20.9756 18.5603 20.8181 18.6069 20.5986L20.0385 13.8486C20.1011 13.5533 19.8764 13.2756 19.5746 13.2754H4.42621C4.12423 13.2754 3.89875 13.5532 3.96136 13.8486L5.39301 20.5986C5.43956 20.8181 5.6335 20.9756 5.85785 20.9756H15.2504C15.4021 20.9758 15.5247 21.0983 15.5248 21.25C15.5248 21.4017 15.4021 21.5252 15.2504 21.5254H5.85785C5.37373 21.5254 4.95538 21.1865 4.85492 20.7129L3.42328 13.9629C3.28805 13.3254 3.77452 12.7256 4.42621 12.7256H19.5746ZM12.0092 15.8252C12.3631 15.8255 12.7023 15.9666 12.9526 16.2168C13.2028 16.467 13.3438 16.8063 13.3442 17.1602V17.1611C13.3434 17.5146 13.2026 17.8537 12.9526 18.1035C12.7024 18.3535 12.3629 18.4938 12.0092 18.4941H12.0082C11.6549 18.4935 11.3157 18.3534 11.0659 18.1035C10.8159 17.8535 10.6757 17.5137 10.6752 17.1602L10.6821 17.0283C10.7125 16.723 10.8471 16.4358 11.0659 16.2168C11.3158 15.9667 11.6547 15.8258 12.0082 15.8252H12.0092ZM12.0092 16.375C11.8013 16.3754 11.6015 16.4583 11.4545 16.6055C11.3076 16.7526 11.2252 16.9522 11.225 17.1602C11.2254 17.368 11.3085 17.5669 11.4555 17.7139C11.6025 17.8608 11.8014 17.944 12.0092 17.9443C12.2171 17.944 12.4168 17.8608 12.5639 17.7139C12.7108 17.567 12.7939 17.3679 12.7944 17.1602C12.7941 16.9521 12.711 16.7526 12.5639 16.6055C12.4168 16.4583 12.2173 16.3753 12.0092 16.375Z" fill="#18181B"/>
</svg>
