<svg width="24" height="24" viewBox="0 0 24 24" fill="none" xmlns="http://www.w3.org/2000/svg">
<path fill-rule="evenodd" clip-rule="evenodd" d="M2.77467 13.3131C2.77467 9.03644 6.17916 5.54898 10.423 5.41461V12.8664C10.423 12.9987 10.456 13.1233 10.5142 13.2324L6.56992 20.0641C4.29489 18.676 2.77467 16.1706 2.77467 13.3131ZM7.04915 20.334C8.1359 20.8973 9.36967 21.2155 10.6771 21.2155C14.8459 21.2155 18.2657 17.9798 18.5617 13.8851C18.5654 13.8229 18.5432 13.7618 18.5003 13.7162C18.4571 13.6703 18.3969 13.6442 18.3338 13.6442H11.2008C11.1085 13.6442 11.0199 13.6281 10.9378 13.5987L7.04915 20.334ZM10.6771 4.8606C6.01217 4.8606 2.22467 8.64762 2.22467 13.3131C2.22467 17.9781 6.01216 21.7655 10.6771 21.7655C15.1371 21.7655 18.7944 18.304 19.1103 13.9233L19.1105 13.9209C19.1242 13.7061 19.048 13.4957 18.901 13.3394C18.754 13.1831 18.5489 13.0942 18.3338 13.0942H11.2008C11.0748 13.0942 10.973 12.9924 10.973 12.8664V5.1356C10.973 4.98372 10.8499 4.8606 10.698 4.8606H10.6771Z" fill="#18181B"/>
<path fill-rule="evenodd" clip-rule="evenodd" d="M12.57 2.50983C12.4992 2.50827 12.4316 2.53532 12.3811 2.58477C12.3311 2.63369 12.3025 2.70135 12.3025 2.77162C12.3014 4.11388 12.3015 10.1408 12.3015 11.4815C12.3015 11.5513 12.3296 11.6184 12.379 11.6679C12.429 11.7173 12.4961 11.7449 12.5664 11.7443C13.9039 11.735 19.9074 11.6939 21.2393 11.6845C21.3096 11.684 21.3767 11.6559 21.4256 11.6054C21.4746 11.5554 21.5016 11.4878 21.5006 11.4175C21.3861 6.5309 17.4576 2.64723 12.57 2.50983Z" fill="#1870E7"/>
<path fill-rule="evenodd" clip-rule="evenodd" d="M13.4301 4.38002C13.4507 4.22955 13.5894 4.12429 13.7399 4.14491C16.95 4.58496 19.4947 7.12162 19.9477 10.3274C19.9689 10.4778 19.8643 10.6169 19.7139 10.6382C19.5635 10.6594 19.4243 10.5547 19.4031 10.4044C18.9845 7.44192 16.6315 5.09645 13.6652 4.68982C13.5147 4.66919 13.4094 4.53049 13.4301 4.38002Z" fill="white"/>
</svg>
