<svg width="24" height="24" viewBox="0 0 24 24" fill="none" xmlns="http://www.w3.org/2000/svg">
<path d="M4.78041 18.8235C4.88758 18.716 5.06185 18.7161 5.16908 18.8235C5.27628 18.931 5.27625 19.1056 5.16908 19.2131L3.19447 21.1946C3.08726 21.3021 2.91302 21.3022 2.8058 21.1946C2.69869 21.087 2.69862 20.9125 2.8058 20.8049L4.78041 18.8235ZM6.62904 19.759C6.73627 19.6517 6.91058 19.6516 7.01772 19.759C7.1248 19.8665 7.12454 20.0411 7.01772 20.1487L6.1769 20.9924C6.06967 21.0999 5.89539 21.1 5.78822 20.9924C5.6812 20.885 5.68133 20.7103 5.78822 20.6028L6.62904 19.759ZM15.1749 14.4788C15.3263 14.4736 15.4529 14.5934 15.4581 14.7454C15.5453 17.2513 14.3514 19.2922 11.9679 20.426C11.8718 20.4716 11.758 20.4578 11.6759 20.3899C11.5938 20.3219 11.5586 20.2121 11.5851 20.1086C11.8236 19.1765 11.8981 18.3215 11.4728 17.5364C11.4004 17.4027 11.4499 17.236 11.5831 17.1633C11.7164 17.0907 11.8828 17.14 11.9552 17.2737C12.3773 18.053 12.3856 18.8677 12.2453 19.6584C14.0855 18.586 14.9835 16.8638 14.9103 14.7639C14.9051 14.612 15.0235 14.4841 15.1749 14.4788ZM3.84682 16.9661C3.95404 16.8586 4.12732 16.8585 4.23451 16.9661C4.34173 17.0736 4.34173 17.2481 4.23451 17.3557L3.39467 18.1985C3.28745 18.3061 3.11322 18.3061 3.006 18.1985C2.89883 18.0909 2.8988 17.9164 3.006 17.8088L3.84682 16.9661ZM6.74623 14.468C6.89116 14.5124 6.97298 14.6664 6.92885 14.8118L6.46693 16.3293L7.65346 17.5198L9.1808 17.054C9.3258 17.0098 9.4794 17.0922 9.52357 17.2375C9.56761 17.383 9.48587 17.537 9.34096 17.5813L7.65541 18.095C7.55848 18.1245 7.45265 18.0984 7.381 18.0266L5.96205 16.6018C5.8905 16.5299 5.86423 16.4246 5.89369 16.3274L6.40346 14.6516C6.44771 14.5063 6.60136 14.4239 6.74623 14.468ZM9.29799 8.61255C9.44922 8.62109 9.56511 8.75178 9.55678 8.90356C9.54823 9.05515 9.41885 9.17151 9.26772 9.16333C8.09401 9.09849 7.05825 9.31856 6.18861 9.82251C5.45979 10.2449 4.83448 10.8737 4.339 11.7258C5.15145 11.5804 5.99033 11.5969 6.79115 12.0637C6.92223 12.1402 6.96693 12.3092 6.89076 12.4407C6.81454 12.5721 6.64584 12.6167 6.51479 12.5403C5.7113 12.072 4.83785 12.1431 3.88881 12.3899C3.78562 12.4166 3.67641 12.3815 3.60854 12.2991C3.54063 12.2166 3.52661 12.1018 3.5724 12.0051C4.14353 10.8 4.93604 9.91181 5.9142 9.34497C6.89169 8.77857 8.03727 8.5429 9.29799 8.61255Z" fill="#18181B"/>
<path fill-rule="evenodd" clip-rule="evenodd" d="M9.72392 17.1563C10.0621 17.4956 10.5903 17.5551 10.9928 17.2959C16.9706 13.5008 19.6431 9.38477 19.5161 4.99623C19.5034 4.71983 19.2816 4.49735 19.005 4.48567C14.6253 4.35275 10.521 7.03559 6.74219 13.0403C6.48665 13.4413 6.54819 13.969 6.88078 14.3027C7.63965 15.0652 8.9645 16.3944 9.72392 17.1563Z" fill="#1870E7"/>
<path fill-rule="evenodd" clip-rule="evenodd" d="M15.5434 8.47225C15.1914 8.11909 14.6207 8.11909 14.2687 8.47225C13.9167 8.8254 13.9167 9.39798 14.2687 9.75114C14.6207 10.1043 15.1914 10.1043 15.5434 9.75114C15.8954 9.39799 15.8954 8.82541 15.5434 8.47225ZM13.8804 8.0827C14.4468 7.5144 15.3652 7.51441 15.9316 8.0827C16.4981 8.651 16.4981 9.57239 15.9316 10.1407C15.3652 10.709 14.4468 10.709 13.8804 10.1407C13.314 9.57239 13.3139 8.651 13.8804 8.0827Z" fill="white"/>
</svg>
