<svg width="24" height="24" viewBox="0 0 24 24" fill="none" xmlns="http://www.w3.org/2000/svg">
<path fill-rule="evenodd" clip-rule="evenodd" d="M11.9327 20.019C6.18558 17.8228 5.31094 13.9202 4.30366 7.88426C4.25092 7.57549 4.34648 7.26065 4.56161 7.03293C4.77623 6.80577 5.08588 6.69218 5.39657 6.72747C8.15889 7.07153 9.80165 6.19263 11.1922 4.7177C11.3792 4.52196 11.6387 4.41113 11.9097 4.41113C12.1807 4.41168 12.4402 4.52251 12.6272 4.71825C14.0172 6.19263 15.6563 7.07208 18.4186 6.73298C18.7277 6.69825 19.0348 6.81073 19.2484 7.03624C19.4624 7.26231 19.5575 7.57549 19.5053 7.88205C18.51 13.9196 17.6803 17.8228 11.9327 20.019Z" fill="#1870E7"/>
<path fill-rule="evenodd" clip-rule="evenodd" d="M15.8972 9.4427C16.0206 9.53125 16.0488 9.70306 15.9603 9.82646L11.7495 15.6947C11.7026 15.7601 11.6293 15.8016 11.5491 15.8084C11.4688 15.8151 11.3897 15.7863 11.3325 15.7296L8.26624 12.6901C8.15838 12.5832 8.15762 12.4091 8.26454 12.3012C8.37147 12.1933 8.54558 12.1926 8.65345 12.2995L11.4907 15.112L15.5134 9.50581C15.602 9.38241 15.7738 9.35416 15.8972 9.4427Z" fill="white"/>
<path d="M11.9142 2.30127C12.0346 2.30142 12.1359 2.37898 12.173 2.48682C12.1898 2.52237 12.2004 2.56209 12.2004 2.604V3.46045C12.2004 3.61229 12.0768 3.73581 11.925 3.73584C11.7731 3.73584 11.6496 3.61231 11.6496 3.46045V2.8999C11.5589 2.93241 11.4636 2.98142 11.3625 3.04736C11.1578 3.18101 10.9467 3.37231 10.7111 3.60205C10.637 3.67433 10.5604 3.75017 10.4816 3.82861C10.0736 4.23519 9.60129 4.70616 9.03925 5.04639C7.73377 5.83834 6.27936 6.05088 4.71893 5.98975C4.33359 5.98038 3.96437 6.13861 3.70331 6.42432C3.44284 6.70918 3.32014 7.09381 3.36639 7.47705V7.47803C3.77276 11.0051 4.31892 13.9795 5.56561 16.3159C6.75828 18.5511 8.60211 20.2142 11.634 21.2017V20.814C11.634 20.6623 11.7576 20.5385 11.9094 20.5376C12.061 20.537 12.1836 20.6594 12.1838 20.811L12.1848 21.5591C12.1848 21.6253 12.1603 21.6852 12.1213 21.7329C12.055 21.8272 11.935 21.8743 11.8185 21.8394C8.44813 20.8278 6.38992 19.0291 5.08026 16.5747C3.78024 14.1383 3.22719 11.0711 2.8205 7.5415C2.75559 7.00065 2.92831 6.45771 3.29706 6.0542C3.66526 5.65104 4.18809 5.426 4.73456 5.43994H4.73846C6.23813 5.49891 7.57316 5.29218 8.75409 4.57568L8.93768 4.45654C9.35817 4.16878 9.72278 3.80715 10.0803 3.45166C10.1625 3.36984 10.2452 3.28764 10.3273 3.20752C10.5658 2.97505 10.8098 2.75144 11.0627 2.58643C11.3174 2.42025 11.6002 2.30127 11.9142 2.30127Z" fill="#18181B"/>
</svg>
