<svg width="24" height="24" viewBox="0 0 24 24" fill="none" xmlns="http://www.w3.org/2000/svg">
<path fill-rule="evenodd" clip-rule="evenodd" d="M2.22449 20.6715C2.22449 20.5196 2.34761 20.3965 2.49949 20.3965H21.502C21.6539 20.3965 21.777 20.5196 21.777 20.6715C21.777 20.8234 21.6539 20.9465 21.502 20.9465H2.49949C2.34761 20.9465 2.22449 20.8234 2.22449 20.6715Z" fill="#18181B"/>
<path d="M4.91923 18.3935C4.68583 18.3935 4.46547 18.2861 4.32208 18.1017C4.17808 17.918 4.1278 17.6778 4.18428 17.4518C4.84164 14.9757 6.73548 12.3948 9.19854 11.8994C9.30282 11.8789 9.41083 11.8889 9.50891 11.9286C10.301 12.2439 11.1458 12.4053 11.998 12.4047C12.8503 12.4065 13.6945 12.2452 14.4859 11.9298C14.5865 11.8889 14.6963 11.8789 14.8025 11.9C17.2631 12.3979 19.1569 14.9776 19.8112 17.4531C19.8676 17.6778 19.8174 17.9168 19.6746 18.0999C19.5318 18.283 19.3127 18.3898 19.0806 18.3898C16.2581 18.3935 7.74044 18.3935 4.91923 18.3935ZM8.07564 7.3178C8.06881 6.26877 8.47787 5.25946 9.21406 4.51148C9.95024 3.7635 10.9527 3.3383 12.0018 3.32837C13.0508 3.3383 14.0533 3.7635 14.7888 4.51148C15.525 5.25946 15.9341 6.26877 15.9266 7.3178C15.9341 8.36683 15.525 9.37614 14.7895 10.1241C14.0533 10.8727 13.0508 11.2979 12.0018 11.3079C10.9527 11.2979 9.95024 10.8727 9.21468 10.1247C8.47849 9.37676 8.06943 8.36746 8.07626 7.31842L8.07564 7.3178Z" fill="#1870E7"/>
</svg>
