<svg width="24" height="24" viewBox="0 0 24 24" fill="none" xmlns="http://www.w3.org/2000/svg">
<path fill-rule="evenodd" clip-rule="evenodd" d="M21.5 8.19404C21.5 7.53815 20.9681 7.00659 20.3126 7.00659H3.68738C3.03195 7.00659 2.5 7.53815 2.5 8.19404V19.5712C2.5 20.2271 3.03195 20.7586 3.68738 20.7586H20.3126C20.9681 20.7586 21.5 20.2271 21.5 19.5712V8.19404Z" fill="#1870E7"/>
<path d="M12.4191 10.8882C12.8985 10.8884 13.2873 11.2779 13.2873 11.7573V12.3921C15.2056 12.4233 17.5807 12.1109 20.6564 11.2593C20.8028 11.2188 20.9548 11.3043 20.9953 11.4507C21.0357 11.5969 20.95 11.7479 20.8039 11.7886C17.6977 12.6486 15.2709 12.973 13.2873 12.9419V13.5688C13.2872 14.0482 12.8985 14.4368 12.4191 14.437H11.5813C11.1018 14.4369 10.7132 14.0483 10.7131 13.5688V12.9419C8.73715 12.9728 6.32186 12.6526 3.2336 11.8003C3.08719 11.7599 3.00081 11.6078 3.04121 11.4614C3.08172 11.3152 3.23376 11.2296 3.38008 11.27C6.43799 12.114 8.80198 12.423 10.7131 12.3921V11.7573C10.7131 11.2778 11.1017 10.8883 11.5813 10.8882H12.4191ZM11.5813 11.439C11.4055 11.4391 11.2629 11.5816 11.2629 11.7573V13.5688C11.263 13.7445 11.4055 13.8871 11.5813 13.8872H12.4191C12.5947 13.887 12.7374 13.7445 12.7375 13.5688V12.6655C12.7374 12.6611 12.7364 12.6563 12.7365 12.6519C12.7366 12.6496 12.7374 12.6473 12.7375 12.645V11.7573C12.7375 11.5816 12.5947 11.4392 12.4191 11.439H11.5813Z" fill="white"/>
<path fill-rule="evenodd" clip-rule="evenodd" d="M8.34004 4.85739C8.34004 3.99415 8.95649 3.2251 9.79406 3.2251H14.2068C15.0444 3.2251 15.6608 3.99415 15.6608 4.85739V4.98126C15.6608 5.13314 15.5377 5.25626 15.3858 5.25626C15.234 5.25626 15.1108 5.13314 15.1108 4.98126V4.85739C15.1108 4.22265 14.6705 3.7751 14.2068 3.7751H9.79406C9.33041 3.7751 8.89004 4.22265 8.89004 4.85739V4.98126C8.89004 5.13314 8.76692 5.25626 8.61504 5.25626C8.46316 5.25626 8.34004 5.13314 8.34004 4.98126V4.85739Z" fill="#18181B"/>
</svg>
