<svg width="24" height="24" viewBox="0 0 24 24" fill="none" xmlns="http://www.w3.org/2000/svg">
<path d="M13.2733 2.22534C13.4251 2.22534 13.5485 2.34797 13.5486 2.49976C13.5486 2.65163 13.4251 2.77515 13.2733 2.77515H12.4149V3.96851C13.9257 4.0158 15.341 4.43976 16.5721 5.15015C16.5775 5.13488 16.5842 5.11977 16.5926 5.10522L17.0906 4.24292L16.6063 3.96362C16.4747 3.88768 16.4297 3.71918 16.5057 3.58765C16.5816 3.45624 16.7492 3.41122 16.8807 3.48706L18.3572 4.3396C18.4886 4.41552 18.5336 4.58313 18.4578 4.7146C18.3819 4.84613 18.2134 4.89112 18.0818 4.81519L17.5662 4.51733L17.0692 5.37964C17.058 5.39902 17.0439 5.41588 17.0291 5.4314C19.4429 7.02527 21.0378 9.76112 21.0379 12.8679C21.0379 15.114 20.2039 17.1687 18.8299 18.7361C18.7298 18.8499 18.5563 18.8612 18.4422 18.7615C18.328 18.6614 18.3167 18.487 18.4168 18.3728C19.7062 16.9018 20.4881 14.9752 20.4881 12.8679C20.4879 8.25567 16.7431 4.51147 12.1317 4.51147C7.51942 4.51152 3.77537 8.25571 3.77521 12.8679C3.77521 17.4795 7.51933 21.2253 12.1317 21.2253C12.2835 21.2253 12.4069 21.348 12.407 21.4998C12.407 21.6516 12.2835 21.7751 12.1317 21.7751C7.21554 21.7751 3.2254 17.7832 3.2254 12.8679C3.22551 9.74383 4.83766 6.99495 7.27423 5.40503C7.26826 5.3969 7.26182 5.38858 7.25665 5.37964L6.75861 4.51733L6.24298 4.81519C6.11145 4.89112 5.94294 4.84613 5.867 4.7146C5.79149 4.58328 5.83655 4.41558 5.96759 4.3396L7.44415 3.48706C7.57568 3.41112 7.74419 3.45612 7.82013 3.58765C7.89599 3.71916 7.85104 3.8877 7.71954 3.96362L7.23419 4.24292L7.73322 5.10522C7.73607 5.11018 7.73754 5.1158 7.74005 5.12085C8.96382 4.42519 10.3675 4.01277 11.8641 3.96851V2.77515H10.9529C10.8012 2.77501 10.6785 2.65155 10.6785 2.49976C10.6786 2.34805 10.8012 2.22548 10.9529 2.22534H13.2733Z" fill="#18181B"/>
<path d="M12.1316 19.2998C15.6836 19.2998 18.5631 16.4203 18.5631 12.8683C18.5631 9.31625 15.6836 6.43677 12.1316 6.43677C8.57955 6.43677 5.70007 9.31625 5.70007 12.8683C5.70007 16.4203 8.57955 19.2998 12.1316 19.2998Z" fill="#1870E7"/>
<path fill-rule="evenodd" clip-rule="evenodd" d="M12.0124 9.01978C12.1642 9.01978 12.2874 9.1429 12.2874 9.29478V13.1369C12.2874 13.2158 12.2534 13.291 12.1942 13.3432L9.91813 15.3491C9.80419 15.4495 9.63041 15.4385 9.52999 15.3246C9.42958 15.2106 9.44054 15.0369 9.55448 14.9365L11.7374 13.0127V9.29478C11.7374 9.1429 11.8605 9.01978 12.0124 9.01978Z" fill="white"/>
</svg>
