<svg width="24" height="24" viewBox="0 0 24 24" fill="none" xmlns="http://www.w3.org/2000/svg">
<path d="M3.26454 20.4586C3.02701 20.4586 2.80331 20.347 2.66049 20.1576C2.51715 19.9682 2.47108 19.723 2.53609 19.4942C3.12274 17.5121 4.65077 15.4988 6.62007 15.1031C6.70607 15.0862 6.79515 15.0944 6.87603 15.1271C7.52922 15.3872 8.22592 15.5203 8.92877 15.5197C9.63161 15.5213 10.3278 15.3882 10.9805 15.1281C11.0634 15.0944 11.154 15.0862 11.2416 15.1036C13.2088 15.5018 14.7368 17.5131 15.3199 19.4957C15.3844 19.723 15.3388 19.9672 15.1965 20.155C15.0542 20.3434 14.8315 20.4545 14.5956 20.4545C12.1712 20.4586 5.68841 20.4586 3.26454 20.4586ZM5.69404 11.3247C5.68841 10.4596 6.02575 9.6272 6.63287 9.01036C7.23999 8.39351 8.06672 8.04286 8.93184 8.03467C9.79696 8.04286 10.6237 8.39351 11.2303 9.01036C11.8374 9.6272 12.1748 10.4596 12.1686 11.3247C12.1748 12.1898 11.8374 13.0222 11.2308 13.639C10.6237 14.2564 9.79696 14.607 8.93184 14.6152C8.06672 14.607 7.23999 14.2564 6.63338 13.6395C6.02626 13.0227 5.68892 12.1903 5.69455 11.3252L5.69404 11.3247Z" fill="#1870E7"/>
<path d="M15.7515 3.26611C17.5062 3.26611 18.9311 4.68358 18.9312 6.43408C18.9312 7.62827 18.267 8.66566 17.2886 9.20557C19.1594 9.58054 20.2638 10.6324 20.9039 11.6968C21.2984 12.353 21.5138 13.0071 21.6304 13.4956C21.6889 13.7404 21.7232 13.9456 21.7427 14.0903C21.7525 14.1626 21.7585 14.2202 21.7623 14.2603C21.7641 14.2802 21.7653 14.296 21.7662 14.3071L21.7672 14.3198V14.3257L21.4927 14.3423C21.7385 14.3281 21.7645 14.327 21.7672 14.3267C21.7756 14.4781 21.6598 14.608 21.5084 14.6167C21.357 14.6253 21.2272 14.5093 21.2183 14.3579V14.3569L21.2173 14.3481C21.2168 14.3403 21.216 14.3275 21.2144 14.311C21.2113 14.2779 21.2055 14.2278 21.1968 14.1636C21.1794 14.0345 21.1489 13.848 21.0953 13.6235C20.9878 13.1734 20.7901 12.5761 20.4322 11.981C19.7249 10.8048 18.3776 9.61084 15.7603 9.61084C14.7238 9.61086 13.8913 9.79782 13.2213 10.0913C13.0822 10.1522 12.9199 10.0888 12.8589 9.94971C12.798 9.81059 12.8614 9.64834 13.0005 9.5874C13.3658 9.42741 13.7698 9.29804 14.2164 9.20752C13.2369 8.66793 12.5728 7.62909 12.5728 6.43408C12.573 4.68365 13.9969 3.26622 15.7515 3.26611ZM15.7515 3.81592C14.2987 3.81602 13.1228 4.98941 13.1226 6.43408C13.1226 7.87888 14.2986 9.05214 15.7515 9.05225C17.2046 9.05225 18.3804 7.87894 18.3804 6.43408C18.3803 4.98934 17.2045 3.81592 15.7515 3.81592Z" fill="#18181B"/>
</svg>
