<svg width="24" height="24" viewBox="0 0 24 24" fill="none" xmlns="http://www.w3.org/2000/svg">
<path d="M17.4974 16.7817C17.8008 16.4908 18.2837 16.4948 18.5823 16.7935L21.7562 19.9673C22.0587 20.2698 22.0587 20.7613 21.7562 21.064L21.2962 21.5239C20.9938 21.8263 20.503 21.8261 20.2005 21.5239L17.0257 18.3491C16.7365 18.0596 16.724 17.5977 16.9886 17.2935L14.9896 15.2603L15.5003 14.7495L17.4974 16.7817ZM18.1927 17.1821C18.105 17.0947 17.9621 17.0944 17.8743 17.1821L17.4144 17.6421C17.3268 17.7296 17.3269 17.8727 17.4144 17.9604L20.5892 21.1353C20.677 21.2227 20.82 21.2228 20.9075 21.1353L21.3675 20.6753C21.4552 20.5875 21.4548 20.4446 21.3675 20.3569L18.1927 17.1821Z" fill="#18181B"/>
<path d="M9.5003 16.5003C13.3663 16.5003 16.5004 13.3663 16.5004 9.5003C16.5004 5.63428 13.3663 2.50024 9.5003 2.50024C5.63428 2.50024 2.50024 5.63428 2.50024 9.5003C2.50024 13.3663 5.63428 16.5003 9.5003 16.5003Z" fill="#1870E7"/>
<path fill-rule="evenodd" clip-rule="evenodd" d="M9.50036 17.4751C5.09844 17.4751 1.52491 13.901 1.52491 9.5C1.52491 5.09825 5.09842 1.52488 9.50036 1.52488C13.9016 1.52488 17.4751 5.09824 17.4751 9.5C17.4751 11.5113 16.7291 13.3496 15.4983 14.7535C15.4028 14.8625 15.4137 15.0283 15.5227 15.1239C15.6317 15.2194 15.7975 15.2085 15.8931 15.0995C17.2044 13.6037 18 11.6435 18 9.5C18 4.80838 14.1915 1 9.50036 1C4.80853 1 1 4.80837 1 9.5C1 14.1909 4.80851 18 9.50036 18C9.64531 18 9.76281 17.8825 9.76281 17.7376C9.76281 17.5926 9.64531 17.4751 9.50036 17.4751Z" fill="#18181B"/>
</svg>
