<svg width="24" height="24" viewBox="0 0 24 24" fill="none" xmlns="http://www.w3.org/2000/svg">
<path d="M15.0446 14.8408C15.1854 14.7 15.3461 14.6326 15.403 14.6895L17.4967 16.7832C17.8001 16.4913 18.2827 16.495 18.5817 16.7939L21.7565 19.9678C22.0588 20.2703 22.058 20.7609 21.7555 21.0635L21.2965 21.5234C20.994 21.8259 20.5023 21.8259 20.1998 21.5234L17.026 18.3496C16.7367 18.0603 16.7237 17.5983 16.9879 17.2939L14.8922 15.1992C14.8357 15.1422 14.9039 14.9815 15.0446 14.8408ZM18.193 17.1826C18.1053 17.0949 17.9625 17.0947 17.8746 17.1826L17.4147 17.6426C17.3271 17.7302 17.3269 17.8732 17.4147 17.9609L20.5885 21.1348C20.6762 21.2225 20.8192 21.2224 20.9069 21.1348L21.3668 20.6748C21.4547 20.5869 21.4545 20.4441 21.3668 20.3564L18.193 17.1826Z" fill="#18181B"/>
<path d="M9.5003 16.5003C13.3663 16.5003 16.5004 13.3663 16.5004 9.5003C16.5004 5.63428 13.3663 2.50024 9.5003 2.50024C5.63428 2.50024 2.50024 5.63428 2.50024 9.5003C2.50024 13.3663 5.63428 16.5003 9.5003 16.5003Z" fill="#1870E7"/>
<path d="M9.52393 5.38525C9.67556 5.38539 9.79813 5.50805 9.79834 5.65967V6.26025C10.4502 6.35033 10.9967 6.77547 11.2026 7.35986C11.2531 7.50311 11.1779 7.66097 11.0347 7.71143C10.8914 7.76186 10.7345 7.68574 10.6841 7.54248C10.5594 7.18877 10.2256 6.90402 9.79834 6.81982V8.94385C10.4162 8.98934 10.8985 9.20107 11.2358 9.54541C11.6169 9.93461 11.7798 10.46 11.7798 11.0083C11.7798 12.0896 10.8949 12.9451 9.79834 13.063V13.6597C9.79834 13.8115 9.67569 13.9349 9.52393 13.9351C9.37205 13.9351 9.24854 13.8115 9.24854 13.6597V13.0591C8.50872 12.9702 7.87434 12.5487 7.54248 11.9487C7.469 11.8159 7.5171 11.6482 7.6499 11.5747C7.78275 11.5012 7.95037 11.5494 8.02393 11.6821C8.25656 12.1028 8.70512 12.4195 9.24854 12.5044V9.46533C8.83126 9.41557 8.48847 9.25935 8.23779 9.01025C7.93226 8.70651 7.78962 8.29532 7.78955 7.86377C7.78955 7.04244 8.43749 6.39441 9.24854 6.26709V5.65967C9.24874 5.50797 9.37218 5.38525 9.52393 5.38525ZM9.79834 12.5083C10.6254 12.3948 11.23 11.7486 11.23 11.0083C11.23 10.5659 11.0992 10.1924 10.8423 9.93018C10.6236 9.70697 10.289 9.53994 9.79834 9.49658V12.5083ZM9.24854 6.82471C8.71328 6.9431 8.33936 7.37972 8.33936 7.86377C8.33942 8.17494 8.44078 8.43707 8.62549 8.62061C8.76497 8.75919 8.96809 8.8679 9.24854 8.9126V6.82471Z" fill="white"/>
</svg>
